<svg xmlns="http://www.w3.org/2000/svg" width="272" height="97" viewBox="0 0 272 97">
    <path fill="#D4ECF9" fill-rule="evenodd" d="M43.544 3.009L.51 57.474v24.744h45.455v12.238h27.972V82.218h11.43V58.146h-11.43V3.01H43.544zm2.42 55.137H28.886l17.08-21.382v21.382zm47.473-9.414c0 25.686 12.372 47.876 43.303 47.876 30.796 0 43.168-22.19 43.168-47.876 0-25.686-12.372-47.875-43.168-47.875-30.931 0-43.303 22.19-43.303 47.875zm55.54 0c0 14.928-3.9 21.114-12.237 21.114-8.473 0-12.373-6.186-12.373-21.114 0-14.927 3.9-21.113 12.373-21.113 8.337 0 12.237 6.186 12.237 21.113zm80.69-45.723l-43.035 54.465v24.744h45.455v12.238h27.972V82.218h11.431V58.146h-11.431V3.01h-30.393zm2.42 55.137h-17.08l17.08-21.382v21.382z"/>
</svg>
