<svg xmlns="http://www.w3.org/2000/svg" width="365" height="130" viewBox="0 0 365 130">
    <path fill="#D4ECF9" fill-rule="evenodd" d="M57.923 3.498L0 76.806v33.306h61.181v16.472h37.65v-16.472h15.386v-32.4H98.83V3.497H57.923zM61.18 77.71H38.193l22.988-28.78v28.78zm63.896-12.67c0 34.572 16.653 64.439 58.285 64.439 41.45 0 58.104-29.867 58.104-64.44 0-34.572-16.653-64.438-58.104-64.438-41.632 0-58.285 29.866-58.285 64.439zm74.757 0c0 20.092-5.25 28.418-16.472 28.418-11.404 0-16.653-8.326-16.653-28.418s5.25-28.419 16.653-28.419c11.223 0 16.472 8.327 16.472 28.419zM308.439 3.498l-57.923 73.308v33.306h61.181v16.472h37.65v-16.472h15.386v-32.4h-15.386V3.497h-40.908zm3.258 74.213H288.71l22.988-28.78v28.78z"/>
</svg>
