<svg xmlns="http://www.w3.org/2000/svg" width="290" height="427" viewBox="0 0 290 427">
    <g fill="none" fill-rule="evenodd">
        <path fill="#A2D9F3" d="M198.172 124.492s35.243-20.03 52.248-15.342c17.004 4.688 48.816 81.735 36.288 86.13-12.528 4.395-18.493-14.667-18.493-14.667s-5.807 8.165-12.344 7.994c-6.538-.17-15.927-25.166-15.927-25.166s-2.598 12.388-10.392 12.411c-7.793.026-13.513-23.448-13.513-23.448s-3.5 12.636-9.38 11.685c-5.878-.95-10.599-34.295-10.599-34.295l2.112-5.302z"/>
        <path fill="#5EC4EC" d="M268.21 180.622c-.204.283-5.92 8.153-12.339 7.985a2.873 2.873 0 0 1-.642-.094c3.778-1.35 9.847-6.305 11.675-12.95l1.305 5.059z"/>
        <path fill="#5EC4EC" d="M198.172 124.492s35.243-20.03 52.248-15.342c17.004 4.688 48.816 81.735 36.288 86.13-.314.11-.623.202-.929.283 2.03-17.802-24.158-77.221-39.026-81.32-14.52-4.004-42.335 10.014-50.154 14.196l1.573-3.947zm41.885 39.246c-.863 3.245-4.098 13.425-10.505 12.114 8.516-6.04 8.36-15.932 8.36-15.932s1.616 2.508 2.145 3.818zm-24.195-10.744c-.141 3.001-4.62 11.186-7.48 9.088 3.81-3.397 6.482-12.162 6.482-12.162s.62 1.73.998 3.074z"/>
        <path fill="#A2D9F3" d="M132.704 116.241s-27.654-34.555-46.796-36.67c-19.14-2.115-82.534 63.18-71.603 72.699 10.93 9.52 24.681-7.406 24.681-7.406s2.592 10.628 9.291 13.095c6.7 2.47 26.322-19.09 26.322-19.09s-2.37 13.615 5.526 16.787c7.894 3.175 23.18-18.323 23.18-18.323s-1.555 14.23 4.792 15.641c6.346 1.412 24.607-30.503 24.607-30.503v-6.23z"/>
        <path fill="#5EC4EC" d="M132.704 116.241s-1.433-1.79-3.868-4.575c-4.876 1.564-10.499 4.126-11.46 6.012-5.244 7.313-10.191 15.554-14.236 22.805-.053 4.277.527 11.507 4.957 12.491 6.346 1.412 24.607-30.503 24.607-30.503v-6.23zM38.99 144.876c.091.37 2.709 10.66 9.287 13.083.217.08.448.134.69.165-3.286-2.896-7.44-10.374-6.61-17.851l-3.368 4.603z"/>
        <path fill="#FBE1CD" d="M136.345 403.884c-2.078 7.687-12.681 10.69-17.447 15.785-1.809 1.934-.26 4.084 0 6.647 2.17 2.793 20.685-7.75 25.72-9.132 4.19-1.668 2.185-7.78 2.528-13.3.001.013 6.338-56.26 9.79-80.828.818-5.878-4.553-11.088-10.233-11.146-5.756-.057-10.47 4.563-10.527 10.32-.264 26.396.433 55.258.17 81.654"/>
        <path fill="#E8D1BF" d="M152.981 353.962c1.412-11.635 2.835-22.939 3.954-30.906.82-5.878-4.552-11.088-10.232-11.145-5.756-.058-10.47 4.562-10.527 10.319-.101 10.112-.061 20.586.012 31.146 6.286.561 12.109.783 16.793.586"/>
        <path fill="#00B0E5" d="M159.42 265.902l-2.192-1-3.435 7.543 2.193 1zM138.271 298.98a1.413 1.413 0 1 0-.869 2.688 1.413 1.413 0 0 0 .87-2.688M175.42 326.921a1.413 1.413 0 1 0-.869 2.688 1.413 1.413 0 0 0 .87-2.688"/>
        <path fill="#E65194" d="M143.52 316.839a1.413 1.413 0 1 0 .913-2.674 1.413 1.413 0 0 0-.913 2.674"/>
        <path fill="#FEFEFE" d="M152.766 51.455l25.866 2.329-3.162 35.108-11.808-12.855-14.057 10.526z"/>
        <path fill="#00B0E5" d="M192.47 105.694l4.76 10.12c-11.103-3.029-25.222-6.593-27.455-18.379l18.884-5.778 3.81 14.037z"/>
        <path fill="#FBE1CD" d="M156.87 91.393l8.4.725 8.4.724.928 21.34 8.796 3.158-6.35 23.523-2.713 12.712-35.412-6.662 2.797-32.443 10.504-1.838z"/>
        <path fill="#DFC9B8" d="M156.87 91.393l8.4.725 8.4.724.6 13.811c-6.322 4.644-14.036 7.579-21.529 3.596l4.129-18.856z"/>
        <path fill="#F8C29B" d="M148.949 319.974c.966-5.212 5.752-8.937 11.142-8.473 3.086.266 5.963 2.053 7.738 4.563-.778-.12-1.55-.26-2.308-.412l-.337 3.909c-5.424.4-10.864.564-16.235.413"/>
        <path fill="#E8D1BF" d="M136.146 403.889c-2.078 7.687-12.681 10.69-17.447 15.785-1.809 1.934-.26 4.084 0 6.647.454.584 1.625.584 3.236.207-.405-2.291-1.573-4.248.087-6.023 4.766-5.095 15.369-8.098 17.448-15.785.264-26.397-.434-55.259-.17-81.655.058-5.756 4.771-10.376 10.528-10.318.2.002.4.01.6.025a10.147 10.147 0 0 0-3.924-.857c-5.756-.057-10.47 4.563-10.527 10.32-.264 26.396.433 55.257.17 81.654"/>
        <path fill="#F8C29B" d="M157.497 259.471l19.744 1.703c2.27 15.372-2.632 45.42-6.904 60.976-1.149 4.18-5.15 7.078-9.624 6.692a9.164 9.164 0 0 1-8.343-9.918l5.127-59.453z"/>
        <path fill="#FBE1CD" d="M95.036 312.107c1.325 22.776 4.893 47.388 2.698 70.562l-8.94.931-.637 11.145h19.11l1.013-11.325 5.028-70.556a9.175 9.175 0 0 0-8.5-9.804c-4.986-.356-10.075 3.836-9.772 9.047"/>
        <path fill="#E8D1BF" d="M95.036 312.107c.646 11.101 1.825 22.639 2.61 34.233 3.936 1.197 8.374 2.295 13.044 3.266l2.618-36.742a9.175 9.175 0 0 0-8.5-9.804c-4.986-.356-10.075 3.836-9.772 9.047M97.739 382.62l-8.944.98-.638 11.145h14.851c-4.05-2.493-5.712-6.647-5.27-12.125"/>
        <path fill="#E8D1BF" d="M95.046 311.988c1.325 22.775 4.893 47.388 2.698 70.561l-8.94.932-.637 11.144h1.757l.542-9.482 9.323-.368c2.195-23.173.493-47.014-.831-69.79-.303-5.21 2.535-10.738 7.522-10.383a9.13 9.13 0 0 1 4.949 1.884 9.151 9.151 0 0 0-6.61-3.546c-4.988-.355-10.076 3.836-9.773 9.048"/>
        <path fill="#F8C29B" d="M147.886 258.642l-19.744-1.702c-4.869 14.756-5.184 45.199-3.638 61.257.416 4.316 3.861 7.856 8.336 8.241a9.164 9.164 0 0 0 9.918-8.343l5.128-59.453z"/>
        <path fill="#5EC4EC" d="M120.186 226.803l.07.006c10.089-32.839 10.512-36.744 5.719-67.37-1.362-4.015-2.097-8.474-1.807-12.952l.29-.352c9.466 8.36 11.946-11.58 13.04-32.397-.101-.018.065-.092-.044-.105 1.824-.398 3.828-.72 6.476-1.15l.002-.002c1.92-.308-1.94 33.033 17.128 34.677 15.688 1.353 21.42-31.441 21.75-31.328v.001c2.105.724 3.969 1.362 5.618 1.958-2.207 20.295 1.755 35.035 5.442 35.499.356.587.6 2.797.765 5.854-.615 2.305-1.336 4.377-2.2 5.995-10.592 28.92-10.608 32.424-6.23 67.529.247 3.262 1.126 4.29 1.003 6.48.883 5.394 1.08 10.996.635 17-1.174 15.865-12.46 75.305-14.715 89.193-3.842 1.217-9.015-.1-12.924-.88-.13 1.516-1.346 1.716-1.477 3.232-17.105 1.263-53.467-4.16-67.52-11.45-1.513-16.818 13.094-54.765 13.304-67.234.151-8.949 12.275-30 15.675-42.204"/>
        <path fill="#00B0E5" d="M192.361 152.32c.497.573 1.006.904 1.51.968.355.587.6 2.797.764 5.854-.615 2.305-1.336 4.377-2.2 5.995-4.237 11.57-6.78 19.07-8.029 26.156-.808-13.633 5.838-26.095 4.592-38.973h3.363z"/>
        <path fill="#FBE1CD" d="M138.787 32.91l62.71 5.41-3.13 36.295c-1.487 17.245-21.558 29.728-34.058 28.65-12.976-1.119-30.14-16.812-28.652-34.059l3.13-36.295z"/>
        <path fill="#00B0E5" d="M127.002 166.188a580.42 580.42 0 0 1 1.4 13.578l1.239.107-.124-.996c.22-.748.493-1.257.797-.991 3.424 3 19.325 6.66 26.802-6.634-13.293 12.463-23.064 6.49-30.114-5.064"/>
        <path fill="#5EC4EC" d="M132.704 116.241s-27.654-34.555-46.796-36.67c-19.14-2.115-82.534 63.18-71.603 72.699.274.238.55.456.827.662 5.133-18.877 55.701-68.564 72.438-66.714 16.345 1.806 38.893 27.262 45.134 34.662v-4.639zm-58.339 22.884c-.436 3.64-1.267 15.272 5.76 16.531-6.196-9.567-2.042-19.537-2.042-19.537s-2.652 1.89-3.718 3.006zm28.88-1.122c-1.068 3.1.168 13.211 3.917 12.24-2.493-4.985-1.662-14.955-1.662-14.955s-1.327 1.504-2.254 2.715z"/>
        <path fill="#E8D1BF" d="M142.838 28.639l28.494 21.617c-10.448 2.118-21.875-5.225-24.057-3.26-2.885 2.6-4.403 6.52-5.114 11.264-2.91 19.42 1.235 40.65 27.122 45.153-1.753.273-3.439.351-5.006.216-12.975-1.119-35.592-20.303-31.255-37.06l9.816-37.93z"/>
        <path fill="#DFC9B8" d="M164.369 66.938a1.013 1.013 0 0 1 2.018.15c-.263 3.58-2.084 5.952-3.576 7.894-.873 1.135-1.613 2.1-1.68 2.894-.05.573.34 1.163.965 1.705.911.788 2.257 1.425 3.6 1.817a1.012 1.012 0 0 1-.565 1.943c-1.603-.469-3.23-1.246-4.362-2.226-1.096-.95-1.77-2.107-1.655-3.413.117-1.38 1.022-2.56 2.09-3.95 1.327-1.726 2.946-3.834 3.165-6.814"/>
        <path fill="#F4B2B3" d="M173.323 87.022c-2.432 1.804-6.606 2.266-9.611 2.385-4.07.162-7.333-1.362-7.334 1.119-.004 6.607 16.336 4.668 16.945-3.504"/>
        <path fill="#00B0E5" d="M160.204 344.458l12.698-65.198c.805 20.265-6.764 44.02-8.607 66.393l-4.09-1.195z"/>
        <path fill="#5EC4EC" d="M177.084.085c3.766.402 7.391.973 10.848 1.73 24.058 6.44 40.877 29.14 39.212 54.735-.558 4.345-1.575 8.054-2.908 11.291-8.683 21.064-30.785 22.094-27.006 47.972-14.14-6.248-10.416-19.838-9.036-23.09 4.642-10.94 10.139-14.428 10.254-21.864.429-27.616-30.454-9.521-51.13-35.956.048.06.183.29-.023-.018-3.56-4.33-6.495-8.548-6.702-13.519l.013-.002c-.264-6.172 3.128-11.308 8.362-15.028A52.845 52.845 0 0 1 177.084.085"/>
        <path fill="#5EC4EC" d="M145.177 92.939c-26.114-14.875-24.503-68.73-4.57-71.58l-.013.003c.208 4.972 3.146 9.192 6.707 13.523-11.234 14.835-17 37.037-2.124 58.054z"/>
        <path fill="#00B0E5" d="M147.3 34.89c-.677 1.028-5.358 7.01-7.894 14.205.267-4.006.825-21.157-9.689-18.455 3.105-6.628 7.882-8.854 10.877-9.282.204 4.976 3.143 9.198 6.707 13.532"/>
        <path fill="#00B0E5" d="M149.698 37.699c-.805-.874-1.6-1.8-2.38-2.796.048.06.183.29-.023-.018-3.56-4.33-6.495-8.548-6.702-13.519l.013-.002c-.264-6.172 3.128-11.308 8.362-15.028A52.81 52.81 0 0 1 172.02.04a70.063 70.063 0 0 0-15.447 6.095c-6.927 4.922-11.417 11.72-11.068 19.888l-.017.003c.175 4.197 1.82 7.99 4.211 11.673"/>
        <path fill="#FBE1CD" d="M96.88 164.11c1.668-3.511 12.095-25.06 24.074-41.765 1.338-2.624 11.698-6.557 16.518-7.288-1.094 20.818-3.839 39.79-13.304 31.43-8.653 10.479-12.094 18.255-17.998 25.93-5.34 6.94-21.676 25.215-32.395 33.464l-.045-5.408-4.753-2.911c5.395-4.538 20.95-27.007 27.903-33.452"/>
        <path fill="#FBE1CD" d="M69.168 197.973c4.496-2.611 2.76-.323 4.13-2.584 2.215.01 1.087 3.674 3.302 3.685-.015 2.932-1.061-1.665-1.077 1.268-.028.026-2.192 6.614-2.615 7.202-1.41 1.958-2.657 4.055-4.451 6.096-4.006 4.557-12.008-.027-10.243-3.87 1.457-3.174 2.036-3.225 3.887-4.841-2.127-.752-4.586.01-2.45-2.76.08-.194 1.269-1.692 3.535-2.192.858-.19 1.558-.31 1.856-.296 2.233.111 4.07-1.675 4.126-1.708"/>
        <path fill="#E8D1BF" d="M77.788 201.762c-.92.649-2.842 1.683-3.442 2.012-.406-1.762-.453-2.09-1.84-4.093l5.282 2.081z"/>
        <path fill="#00B0E5" d="M126.805 164.84l.862.073c5.24 27.162 1.065 41.241-2.825 55.877-2.443 9.191-19.308 50.81-25.376 80.926-3.6 17.87 1.948 31.975 1.96 32.07 6.88 3.23 36.942 13.05 44.919 13.892-10.942-.685-46.066-6.732-55.137-11.438-.018-.2-6.04-16.577-1.07-35.95 7.742-30.172 28.103-69.326 31.138-79.168 4.562-14.797 9.637-28.966 5.529-56.283"/>
        <path fill="#DFC9B8" d="M160.161 57.693c.472.01.873-.435.895-.994.023-.559-.342-1.02-.814-1.03l-5.89-1.497-7.099 1.269c-.471-.01-.873.436-.895.994-.022.559.343 1.02.815 1.03l7.138-1.268 5.85 1.496zM172.793 58.745c-.466-.071-.785-.579-.712-1.133.074-.554.513-.946.98-.876l6.06-.466 6.775 2.466c.467.07.785.578.712 1.133-.074.554-.513.946-.98.875l-6.814-2.472-6.02.473z"/>
        <path stroke="#00B0E5" stroke-width="2" d="M26.942 209.563l18.338 27.91M31.098 206.832L51.57 237.99M35.264 204.096l21.34 32.479"/>
        <path fill="#5EC4EC" d="M48.386 188.86a10.555 10.555 0 0 1-1.51-7.954 10.554 10.554 0 0 1 12.5-8.213 10.554 10.554 0 0 1 6.701 4.544l.034.054.036.052a6.214 6.214 0 0 1 .89 4.684 6.215 6.215 0 0 1-7.36 4.836 6.213 6.213 0 0 1-3.945-2.677 3.323 3.323 0 0 1 1.94-5.042 3.913 3.913 0 0 0-2.603.614 3.923 3.923 0 0 0-1.685 2.495 3.924 3.924 0 0 0 .557 2.958l5.487 8.353 9.747 14.833c3.547 5.4 4.564 11.756 3.345 17.647-1.22 5.891-4.676 11.322-10.076 14.87-5.399 3.547-11.755 4.564-17.647 3.345-5.89-1.22-11.321-4.677-14.869-10.076l-15.234-23.186-.007-.01a3.925 3.925 0 0 0-2.487-1.676 3.925 3.925 0 0 0-2.958.557 3.911 3.911 0 0 0-1.597 2.146 3.323 3.323 0 0 1 5.398.22 6.213 6.213 0 0 1 .89 4.684 6.214 6.214 0 0 1-7.36 4.836 6.214 6.214 0 0 1-3.946-2.677l-.033-.053-.036-.053a10.554 10.554 0 0 1-1.51-7.955 10.554 10.554 0 0 1 12.5-8.212 10.554 10.554 0 0 1 6.701 4.543l.754 1.148 28.137-18.487-.754-1.147zm-25.102 23.106l2.453 3.734.01.014 9.736 14.82c2.54 3.866 6.434 6.342 10.661 7.217 4.227.875 8.785.148 12.65-2.392 3.866-2.54 6.343-6.435 7.217-10.662.876-4.227.149-8.784-2.391-12.65l-9.746-14.834-2.453-3.733-28.137 18.486z"/>
        <path stroke="#00B0E5" stroke-width="2" d="M47.762 195.884c2.7 4.108 9.746 3.236 13.714-4.342m15.689 31.444c-4.76-11.784-15.175-4.94-11.006.898M43.597 198.62c3.156 4.803 7.86 9.446 11.808 4.864m21.918 30.334c-4.78-8.789-16.92-9.62-13.252-4.036M39.43 201.358c3.972 5.04 7.146 12.897 15.914 11.112m14.539 31.207c-2.55-7.532-6.742-13.852-9.113-9.838"/>
        <path fill="#00B0E5" d="M66.77 214.45c.542 3.382 2.963-2.007 3.409-2.977 1.22-2.66-2.407-6.297-4.764-8.06-2.517-1.883-2.974-1.918-6.306 1.77l7.66 9.266z"/>
        <path fill="#FBE1CD" d="M219.926 173.998c-1.043-3.745-9.257-27.508-18.277-45.05-.869-2.814-8.695-8.683-13.318-10.229-2.486 20.698-3.862 42.976 6.895 36.36 6.73 11.806 9.62 16.94 14.124 25.512 4.073 7.753 17.04 28.554 26.187 38.517l.97-5.32 5.182-2.055c-4.538-5.395-16.682-29.602-21.763-37.735"/>
        <path fill="#FBE1CD" d="M241.43 212.105c-3.983-3.342-2.663-.79-3.626-3.253-2.185-.368-1.7 3.434-3.884 3.065-.487 2.892 1.33-1.458.844 1.435.023.03 1.026 6.89 1.343 7.543 1.054 2.17 1.923 4.45 3.342 6.768 3.166 5.175 11.835 2.029 10.754-2.059-.892-3.377-1.454-3.526-3.001-5.436 2.225-.376 4.516.796 2.886-2.299-.045-.205-.96-1.884-3.107-2.765-.813-.334-1.482-.573-1.778-.61-2.219-.272-3.723-2.347-3.773-2.389"/>
        <path fill="#E8D1BF" d="M232.365 214.912c.795.797 2.511 2.144 3.047 2.571.7-1.666.804-1.98 2.514-3.717l-5.561 1.146z"/>
        <path fill="#FBE1CD" d="M241.106 229.313c-1.06-4.007.866-5.134 3.335-6.388 1.931-.982 3.894-.372 5.72 2.525l-6.647 4.845-1.294-.329-1.114-.653zM246.185 218.946c4.685 3.654 6.684 1.718 3.48-2.293-.032-.145-3.152-2.836-5.795-2.55l-.127 2.81 2.442 2.033z"/>
        <path stroke="#00B0E5" stroke-width="3" d="M109.343 396.173l-40.45-.62"/>
        <path fill="#00B0E5" d="M48.48 188.474a10.556 10.556 0 0 1-1.51-7.955 10.567 10.567 0 0 1 3.753-6.128 10.615 10.615 0 0 0-2.091 4.467c-.55 2.654-.09 5.52 1.51 7.955l.754 1.147-1.923 1.264-.493-.75zm17.71-4.598a6.214 6.214 0 0 1-6.418 2.6 6.242 6.242 0 0 1-2.8-1.372l-1.275-1.94a3.9 3.9 0 0 1-.39-.768 3.324 3.324 0 0 1 1.93-3.45 3.32 3.32 0 0 0 .25 3.193 6.213 6.213 0 0 0 3.946 2.676 6.214 6.214 0 0 0 4.684-.89l.073-.05zm-8.848-5.144a3.903 3.903 0 0 0-1.834.438 3.89 3.89 0 0 1 1.318-1.46 3.913 3.913 0 0 1 2.603-.613 3.311 3.311 0 0 0-.989.44 3.31 3.31 0 0 0-1.098 1.195zm9.704 57.936a23.328 23.328 0 0 1-4.507 3.86c-5.4 3.547-11.756 4.564-17.647 3.344-5.891-1.219-11.322-4.676-14.87-10.075l-14.48-22.04a6.214 6.214 0 0 0-.743-1.57 3.324 3.324 0 0 0-3.913-1.3 3.888 3.888 0 0 0-1.206.394 3.89 3.89 0 0 1 1.318-1.46 3.925 3.925 0 0 1 2.958-.557 3.925 3.925 0 0 1 2.487 1.674l.007.011 15.235 23.187c3.547 5.399 8.977 8.856 14.869 10.075 5.89 1.22 12.247.202 17.647-3.345a23.482 23.482 0 0 0 2.845-2.198zm-53.96-17.901a6.214 6.214 0 0 1-6.418 2.6 6.214 6.214 0 0 1-3.946-2.676l-.034-.054-.036-.052a10.554 10.554 0 0 1-1.51-7.955 10.565 10.565 0 0 1 3.752-6.128 10.62 10.62 0 0 0-2.09 4.466c-.55 2.654-.09 5.52 1.51 7.955l.036.053.034.053a6.214 6.214 0 0 0 3.945 2.677 6.214 6.214 0 0 0 4.684-.89l.073-.05zm49.248 13.194a16.896 16.896 0 0 0 3.772-7.65c.875-4.227.149-8.784-2.391-12.65l-9.747-14.834-2.453-3.733-26.213 17.223-.262-.398 28.137-18.487 2.453 3.734 9.746 14.833c2.54 3.866 3.267 8.424 2.392 12.65a16.824 16.824 0 0 1-5.434 9.312z"/>
        <path fill="#5EC4EC" d="M88.418 380.62H81.77c-7.311 0-13.293 6.438-13.293 14.307h26.586v-7.153c0-3.935-2.99-7.153-6.646-7.153"/>
        <path fill="#FBE1CD" d="M63.312 203.899c-5.241 2.798-6.88.548-3.035-2.856.056-.137 3.59-2.254 6.146-1.52l-.357 2.791-2.754 1.585zM66.542 214.982c1.73-3.766.025-5.206-2.192-6.865-1.735-1.298-3.773-1.032-6.07 1.509l5.721 5.912 1.331-.103 1.21-.453z"/>
        <path fill="#00B0E5" d="M87.587 380.62h-5.816c-7.311 0-13.293 6.438-13.293 14.307h5.816c0-7.869 5.982-14.306 13.293-14.306"/>
        <path fill="#E8D1BF" d="M195.31 154.618c6.73 11.806 9.62 16.94 14.124 25.512 4.073 7.753 17.04 28.554 26.188 38.517l.784-4.3c-9.08-10.287-21.366-30.032-25.31-37.54-4.503-8.572-7.393-13.706-14.124-25.512-8.285.848-6.368 3.846-6.623 4.172-.926 1.18 4.081-.308 4.961-.849"/>
        <path fill="#00B0E5" d="M168.848 181.184c4.904.543 10.521-1.66 14.33-7.473-9.45 7.68-16.596 6.332-22.012.714 0 0 2.41 6.176 7.682 6.76"/>
        <path fill="#AC9084" d="M178.553 63.641c-2.552-.159-4.757 1.904-4.925 4.606l9.24.575c.169-2.702-1.764-5.022-4.315-5.18M152.797 62.81c-2.551-.158-4.757 1.904-4.925 4.606l9.241.575c.168-2.702-1.764-5.022-4.316-5.18"/>
    </g>
</svg>
