<svg xmlns="http://www.w3.org/2000/svg" width="146" height="215" viewBox="0 0 146 215">
    <g fill="none" fill-rule="evenodd">
        <path fill="#A2D9F3" d="M99.571 63.135s17.693-10.056 26.23-7.702c8.535 2.353 24.505 41.031 18.216 43.238-6.29 2.206-9.283-7.363-9.283-7.363s-2.916 4.098-6.197 4.013c-3.282-.086-7.996-12.633-7.996-12.633s-1.304 6.218-5.216 6.23c-3.913.013-6.784-11.771-6.784-11.771s-1.758 6.343-4.709 5.866c-2.95-.477-5.32-17.217-5.32-17.217l1.06-2.661z"/>
        <path fill="#5EC4EC" d="M134.73 91.312c-.102.143-2.97 4.093-6.193 4.009a1.449 1.449 0 0 1-.323-.047c1.897-.678 4.944-3.166 5.861-6.501l.656 2.54z"/>
        <path fill="#5EC4EC" d="M99.571 63.135s17.693-10.056 26.23-7.702c8.535 2.353 24.505 41.031 18.216 43.238a6.234 6.234 0 0 1-.466.142c1.02-8.937-12.128-38.766-19.591-40.824-7.29-2.01-21.253 5.028-25.178 7.127l.79-1.981zm21.027 19.701c-.433 1.63-2.057 6.74-5.273 6.082 4.274-3.033 4.196-7.998 4.196-7.998s.811 1.259 1.077 1.916zm-12.146-5.393c-.071 1.506-2.32 5.615-3.756 4.562 1.913-1.705 3.255-6.105 3.255-6.105s.31.868.5 1.543z"/>
        <path fill="#A2D9F3" d="M66.706 58.993s-13.883-17.347-23.492-18.41C33.605 39.524 1.781 72.3 7.27 77.08c5.487 4.78 12.39-3.717 12.39-3.717s1.301 5.335 4.664 6.574c3.364 1.239 13.214-9.584 13.214-9.584s-1.19 6.835 2.774 8.427c3.963 1.594 11.636-9.198 11.636-9.198s-.78 7.144 2.406 7.852c3.186.709 12.353-15.313 12.353-15.313v-3.127z"/>
        <path fill="#5EC4EC" d="M66.706 58.993s-.72-.899-1.942-2.297c-2.448.785-5.27 2.071-5.753 3.018-2.633 3.67-5.116 7.808-7.147 11.448-.026 2.147.265 5.777 2.49 6.271 3.185.709 12.352-15.313 12.352-15.313v-3.127zM19.66 73.367c.047.186 1.36 5.352 4.663 6.569.109.04.225.067.346.082-1.65-1.454-3.735-5.208-3.318-8.961l-1.69 2.31z"/>
        <path fill="#FBE1CD" d="M68.534 203.392c-1.044 3.859-6.366 5.366-8.759 7.924-.908.97-.13 2.05 0 3.337 1.09 1.402 10.384-3.89 12.912-4.584 2.103-.838 1.097-3.906 1.269-6.677 0 .006 3.182-28.244 4.914-40.577.411-2.95-2.285-5.566-5.136-5.595a5.233 5.233 0 0 0-5.285 5.18c-.133 13.252.217 27.74.085 40.992"/>
        <path fill="#E8D1BF" d="M76.885 178.33c.709-5.84 1.423-11.515 1.985-15.515.411-2.95-2.285-5.566-5.136-5.595a5.233 5.233 0 0 0-5.285 5.18c-.051 5.077-.03 10.335.006 15.636 3.155.282 6.079.393 8.43.295"/>
        <path fill="#00B0E5" d="M80.118 134.123l-1.101-.501-1.724 3.786 1.1.502zM69.5 150.73a.71.71 0 1 0-.435 1.349.71.71 0 0 0 .436-1.35M88.15 164.756a.71.71 0 1 0-.436 1.35.71.71 0 0 0 .436-1.35"/>
        <path fill="#E65194" d="M72.136 159.694a.71.71 0 1 0 .458-1.342.71.71 0 0 0-.458 1.342"/>
        <path fill="#FEFEFE" d="M76.777 26.47l12.985 1.168-1.587 17.625-5.928-6.453-7.057 5.284z"/>
        <path fill="#00B0E5" d="M96.708 53.698l2.39 5.08c-5.573-1.52-12.661-3.31-13.782-9.226l9.48-2.9 1.912 7.046z"/>
        <path fill="#FBE1CD" d="M78.837 46.519l4.217.364 4.217.363.466 10.713 4.416 1.585-3.188 11.81-1.362 6.38-17.777-3.344 1.404-16.286 5.273-.923z"/>
        <path fill="#DFC9B8" d="M78.837 46.519l4.217.363 4.217.364.302 6.933c-3.174 2.332-7.047 3.805-10.808 1.806l2.072-9.466z"/>
        <path fill="#F8C29B" d="M74.861 161.268a5.233 5.233 0 0 1 5.594-4.253c1.548.133 2.993 1.03 3.884 2.29-.39-.06-.778-.13-1.159-.207l-.169 1.963a80.265 80.265 0 0 1-8.15.207"/>
        <path fill="#E8D1BF" d="M68.434 203.394c-1.043 3.86-6.366 5.367-8.759 7.924-.908.971-.13 2.05 0 3.337.228.293.816.293 1.625.104-.203-1.15-.79-2.133.044-3.023 2.392-2.558 7.715-4.066 8.758-7.925.133-13.251-.217-27.74-.085-40.991a5.233 5.233 0 0 1 5.587-5.167 5.092 5.092 0 0 0-1.97-.43 5.233 5.233 0 0 0-5.285 5.18c-.133 13.251.218 27.74.085 40.991"/>
        <path fill="#F8C29B" d="M79.152 130.895l9.912.855c1.14 7.717-1.321 22.8-3.466 30.61a4.602 4.602 0 0 1-9.02-1.619l2.574-29.846z"/>
        <path fill="#FBE1CD" d="M47.797 157.319c.665 11.433 2.456 23.79 1.354 35.422l-4.488.468-.32 5.595h9.593l.51-5.685 2.523-35.42a4.606 4.606 0 0 0-4.267-4.922c-2.503-.178-5.058 1.926-4.905 4.542"/>
        <path fill="#E8D1BF" d="M47.796 157.319c.325 5.573.916 11.365 1.31 17.185 1.977.6 4.205 1.152 6.549 1.64l1.314-18.445a4.606 4.606 0 0 0-4.267-4.922c-2.503-.178-5.058 1.926-4.906 4.542M49.153 192.717l-4.49.492-.32 5.595h7.455c-2.033-1.252-2.867-3.337-2.645-6.087"/>
        <path fill="#E8D1BF" d="M47.801 157.259c.665 11.434 2.457 23.79 1.355 35.422l-4.488.468-.32 5.595h.882l.272-4.76 4.68-.185c1.102-11.633.248-23.602-.417-35.035-.152-2.616 1.273-5.391 3.776-5.213.939.067 1.792.411 2.485.946a4.594 4.594 0 0 0-3.319-1.78c-2.504-.178-5.058 1.926-4.906 4.542"/>
        <path fill="#F8C29B" d="M74.327 130.48l-9.912-.856c-2.443 7.408-2.602 22.69-1.825 30.752a4.602 4.602 0 0 0 9.163-.051l2.574-29.846z"/>
        <path fill="#5EC4EC" d="M60.422 114.495l.035.003c5.065-16.485 5.277-18.445 2.87-33.82-.683-2.015-1.052-4.253-.906-6.502l.145-.176c4.752 4.196 5.997-5.813 6.547-16.264-.051-.01.032-.046-.023-.053.916-.2 1.922-.361 3.252-.577.964-.156-.973 16.582 8.599 17.407 7.875.68 10.753-15.783 10.918-15.726 1.057.363 1.993.684 2.82.983-1.107 10.188.882 17.587 2.733 17.82.178.295.301 1.405.384 2.94-.309 1.156-.67 2.196-1.104 3.009-5.318 14.517-5.326 16.277-3.128 33.9.124 1.637.565 2.153.503 3.253.444 2.707.542 5.52.32 8.534-.59 7.964-6.256 37.803-7.388 44.776-1.929.61-4.525-.05-6.488-.442-.065.76-.676.861-.741 1.622-8.587.634-26.841-2.089-33.896-5.748-.76-8.442 6.573-27.492 6.679-33.752.076-4.492 6.162-15.06 7.869-21.187"/>
        <path fill="#00B0E5" d="M96.654 77.104c.25.288.505.454.758.486.179.295.301 1.405.384 2.94-.309 1.156-.67 2.196-1.104 3.009-2.128 5.808-3.405 9.573-4.031 13.13-.406-6.844 2.93-13.1 2.305-19.565h1.688z"/>
        <path fill="#FBE1CD" d="M69.76 17.16l31.481 2.715-1.571 18.22c-.747 8.658-10.823 14.925-17.098 14.384-6.514-.562-15.13-8.44-14.384-17.098l1.572-18.22z"/>
        <path fill="#00B0E5" d="M63.843 84.066c.26 2.267.505 4.617.704 6.817l.621.053-.062-.5c.11-.375.248-.63.4-.497 1.719 1.506 9.701 3.343 13.455-3.33-6.673 6.256-11.578 3.258-15.118-2.543"/>
        <path fill="#5EC4EC" d="M66.706 58.993S52.823 41.646 43.214 40.584C33.605 39.522 1.781 72.3 7.27 77.079c.137.12.276.229.415.332 2.577-9.475 27.962-34.419 36.364-33.49 8.205.906 19.525 13.685 22.658 17.4v-2.328zM37.419 70.48c-.219 1.828-.636 7.667 2.892 8.3-3.11-4.804-1.025-9.809-1.025-9.809s-1.332.95-1.867 1.51zm14.499-.563c-.537 1.557.084 6.632 1.965 6.145-1.25-2.503-.834-7.508-.834-7.508s-.666.756-1.131 1.363z"/>
        <path fill="#E8D1BF" d="M71.793 15.016l14.305 10.852c-5.246 1.063-10.982-2.624-12.077-1.637-1.449 1.305-2.21 3.273-2.568 5.655-1.46 9.748.62 20.407 13.616 22.667-.88.137-1.727.176-2.513.108-6.514-.561-17.868-10.192-15.69-18.605l4.927-19.04z"/>
        <path fill="#DFC9B8" d="M82.602 34.242a.508.508 0 0 1 1.013.075c-.132 1.798-1.046 2.988-1.795 3.963-.438.57-.81 1.054-.844 1.453-.025.287.171.584.485.856.457.395 1.133.715 1.808.912a.508.508 0 0 1-.285.975c-.804-.235-1.62-.625-2.189-1.117-.55-.477-.889-1.058-.831-1.713.058-.693.513-1.286 1.05-1.983.665-.867 1.478-1.925 1.588-3.421"/>
        <path fill="#F4B2B3" d="M87.097 44.325c-1.22.905-3.316 1.137-4.825 1.197-2.043.08-3.681-.684-3.682.561-.001 3.317 8.201 2.344 8.507-1.758"/>
        <path fill="#00B0E5" d="M80.511 173.56l6.375-32.73c.404 10.172-3.396 22.097-4.321 33.329l-2.054-.6z"/>
        <path fill="#5EC4EC" d="M88.985.681c1.89.202 3.71.489 5.446.869 12.077 3.232 20.52 14.629 19.685 27.477-.28 2.181-.791 4.044-1.46 5.668C108.296 45.27 97.2 45.787 99.097 58.778 92 55.64 93.87 48.818 94.562 47.186c2.33-5.491 5.09-7.243 5.148-10.975.215-13.864-15.288-4.78-25.667-18.05.023.03.091.145-.012-.01-1.787-2.173-3.26-4.291-3.365-6.786l.007-.002c-.133-3.098 1.57-5.676 4.198-7.543A26.528 26.528 0 0 1 88.985.68"/>
        <path fill="#5EC4EC" d="M72.967 47.295c-13.11-7.468-12.3-34.503-2.294-35.934l-.006.001c.104 2.497 1.579 4.615 3.367 6.79-5.64 7.446-8.534 18.592-1.067 29.143z"/>
        <path fill="#00B0E5" d="M74.034 18.154c-.34.516-2.69 3.519-3.964 7.13.135-2.01.414-10.62-4.863-9.264 1.558-3.327 3.956-4.445 5.46-4.66.102 2.499 1.578 4.618 3.367 6.794"/>
        <path fill="#00B0E5" d="M75.237 19.564a22.733 22.733 0 0 1-1.194-1.404c.023.03.091.146-.012-.009-1.787-2.173-3.26-4.291-3.365-6.786l.007-.002c-.133-3.098 1.57-5.676 4.198-7.543C78.358 1.94 82.295.819 86.442.659a35.173 35.173 0 0 0-7.754 3.06c-3.478 2.47-5.732 5.883-5.556 9.983l-.009.002c.088 2.107.914 4.01 2.114 5.86"/>
        <path fill="#FBE1CD" d="M48.722 83.023c.837-1.762 6.072-12.58 12.085-20.966.672-1.317 5.873-3.292 8.293-3.659-.55 10.451-1.927 19.975-6.68 15.778-4.343 5.26-6.07 9.164-9.034 13.017-2.68 3.485-10.882 12.658-16.263 16.8l-.023-2.715-2.385-1.462c2.708-2.278 10.517-13.557 14.007-16.793"/>
        <path fill="#FBE1CD" d="M34.81 100.023c2.258-1.311 1.386-.162 2.073-1.298 1.113.006.546 1.845 1.658 1.85-.007 1.472-.532-.835-.54.637-.015.013-1.1 3.32-1.313 3.616-.708.982-1.334 2.035-2.235 3.06-2.01 2.287-6.028-.014-5.142-1.943.732-1.594 1.022-1.62 1.952-2.43-1.068-.378-2.303.005-1.23-1.386.04-.097.637-.85 1.774-1.1.431-.096.782-.156.932-.149 1.121.056 2.043-.841 2.071-.857"/>
        <path fill="#E8D1BF" d="M39.138 101.925c-.462.326-1.427.845-1.728 1.01-.204-.885-.228-1.05-.924-2.055l2.652 1.045z"/>
        <path fill="#00B0E5" d="M63.745 83.39l.432.036c2.631 13.636.535 20.704-1.418 28.051-1.226 4.614-9.693 25.507-12.739 40.625-1.807 8.971.978 16.052.984 16.1 3.454 1.621 18.545 6.55 22.55 6.974-5.493-.344-23.126-3.38-27.68-5.742-.009-.1-3.032-8.322-.536-18.047 3.886-15.147 14.108-34.803 15.63-39.743 2.291-7.429 4.839-14.542 2.777-28.255"/>
        <path fill="#DFC9B8" d="M80.49 29.601c.237.005.438-.219.45-.499.01-.28-.173-.512-.41-.517l-2.957-.752-3.563.637c-.237-.005-.438.22-.45.5-.01.28.173.512.41.517l3.583-.637 2.937.751zM86.83 30.129c-.233-.036-.393-.29-.356-.569.037-.278.257-.475.491-.44l3.042-.233 3.402 1.237c.234.036.394.29.357.57-.037.277-.257.474-.491.439l-3.422-1.241-3.022.237z"/>
        <path stroke="#00B0E5" stroke-width="2" d="M13.613 105.84l9.206 14.012M15.7 104.47l10.276 15.641M17.79 103.096l10.713 16.305"/>
        <path fill="#5EC4EC" d="M24.377 95.448a5.298 5.298 0 0 1-.757-3.993 5.298 5.298 0 0 1 6.274-4.123 5.298 5.298 0 0 1 3.365 2.281l.017.027.018.026c.473.72.609 1.568.447 2.352a3.12 3.12 0 0 1-3.695 2.427 3.119 3.119 0 0 1-1.98-1.343 1.668 1.668 0 0 1 .973-2.531 1.964 1.964 0 0 0-2.152 1.56 1.97 1.97 0 0 0 .28 1.485l2.754 4.193 4.893 7.447a11.75 11.75 0 0 1 1.679 8.859 11.751 11.751 0 0 1-5.058 7.464 11.752 11.752 0 0 1-8.859 1.68 11.752 11.752 0 0 1-7.464-5.058l-7.648-11.64-.003-.006a1.97 1.97 0 0 0-1.249-.84 1.964 1.964 0 0 0-2.287 1.357 1.667 1.667 0 0 1 2.71.11c.473.72.61 1.567.447 2.351a3.12 3.12 0 0 1-3.695 2.428 3.119 3.119 0 0 1-1.98-1.344l-.018-.027-.018-.026a5.298 5.298 0 0 1-.757-3.994 5.298 5.298 0 0 1 6.274-4.122 5.298 5.298 0 0 1 3.365 2.28l.378.577 14.125-9.28-.378-.577zm-12.6 11.6l1.23 1.874.005.007 4.888 7.44a8.423 8.423 0 0 0 5.352 3.622c2.122.44 4.41.075 6.35-1.2a8.423 8.423 0 0 0 3.624-5.353 8.423 8.423 0 0 0-1.2-6.35l-4.894-7.447-1.23-1.874-14.126 9.28z"/>
        <path stroke="#00B0E5" stroke-width="2" d="M24.064 98.974c1.356 2.062 4.893 1.624 6.885-2.18m7.876 15.785c-2.39-5.915-7.618-2.48-5.525.451M21.973 100.348c1.585 2.41 3.946 4.741 5.928 2.441m11.003 15.228c-2.4-4.412-8.494-4.83-6.652-2.026M19.882 101.722c1.994 2.53 3.587 6.474 7.989 5.578m7.298 15.666c-1.28-3.78-3.384-6.953-4.574-4.938"/>
        <path fill="#00B0E5" d="M33.606 108.294c.272 1.698 1.488-1.007 1.712-1.495.613-1.335-1.209-3.16-2.392-4.045-1.263-.946-1.492-.963-3.165.888l3.845 4.652z"/>
        <path fill="#FBE1CD" d="M110.492 87.987c-.523-1.88-4.647-13.81-9.175-22.615-.436-1.413-4.365-4.36-6.686-5.135-1.248 10.39-1.939 21.574 3.461 18.253 3.38 5.926 4.83 8.504 7.09 12.807 2.045 3.892 8.555 14.334 13.147 19.335l.487-2.67 2.601-1.032c-2.278-2.708-8.374-14.86-10.925-18.943"/>
        <path fill="#FBE1CD" d="M121.287 107.117c-1.999-1.678-1.337-.397-1.82-1.633-1.097-.185-.853 1.724-1.95 1.539-.244 1.452.668-.732.424.72.011.015.515 3.46.674 3.787.53 1.09.966 2.233 1.678 3.397 1.59 2.598 5.94 1.019 5.398-1.033-.447-1.696-.73-1.77-1.506-2.73 1.117-.188 2.267.4 1.448-1.153-.022-.104-.481-.946-1.56-1.389-.407-.167-.743-.287-.892-.306-1.114-.136-1.869-1.178-1.894-1.199"/>
        <path fill="#E8D1BF" d="M116.736 108.526c.4.4 1.261 1.077 1.53 1.291.352-.837.404-.994 1.262-1.866l-2.792.575z"/>
        <path fill="#FBE1CD" d="M121.124 115.756c-.531-2.012.435-2.578 1.675-3.207.97-.493 1.954-.187 2.872 1.267l-3.338 2.433-.65-.165-.559-.328zM123.674 110.551c2.352 1.835 3.356.863 1.747-1.151-.016-.073-1.582-1.424-2.909-1.28l-.063 1.411 1.225 1.02z"/>
        <path stroke="#00B0E5" stroke-width="3" d="M54.979 199.52l-20.307-.31"/>
        <path fill="#00B0E5" d="M24.425 95.254a5.3 5.3 0 0 1-.758-3.993 5.305 5.305 0 0 1 1.884-3.077 5.33 5.33 0 0 0-1.05 2.243 5.3 5.3 0 0 0 .758 3.993l.379.576-.966.635-.247-.377zm8.89-2.308a3.12 3.12 0 0 1-3.222 1.306 3.133 3.133 0 0 1-1.405-.69l-.64-.974a1.95 1.95 0 0 1-.196-.385 1.668 1.668 0 0 1 .968-1.732c-.226.503-.199 1.107.127 1.603a3.12 3.12 0 0 0 1.98 1.343 3.12 3.12 0 0 0 2.352-.447l.036-.024zm-4.442-2.582a1.96 1.96 0 0 0-.92.22 1.953 1.953 0 0 1 1.968-1.041 1.662 1.662 0 0 0-1.048.82zm4.872 29.084a11.752 11.752 0 0 1-11.121 3.617 11.752 11.752 0 0 1-7.465-5.058l-7.27-11.065a3.118 3.118 0 0 0-.372-.788 1.669 1.669 0 0 0-1.965-.652 1.952 1.952 0 0 0-.605.197c.15-.288.373-.543.661-.733a1.97 1.97 0 0 1 1.486-.28 1.97 1.97 0 0 1 1.248.841l.004.006 7.647 11.64a11.751 11.751 0 0 0 7.465 5.057 11.751 11.751 0 0 0 10.287-2.782zM6.657 110.46a3.12 3.12 0 0 1-3.222 1.306 3.12 3.12 0 0 1-1.981-1.344l-.017-.027-.018-.026a5.298 5.298 0 0 1-.758-3.994 5.304 5.304 0 0 1 1.884-3.076 5.331 5.331 0 0 0-1.05 2.242 5.298 5.298 0 0 0 .758 3.994l.018.026.017.027a3.12 3.12 0 0 0 1.98 1.344 3.12 3.12 0 0 0 2.352-.447l.037-.025zm24.723 6.624a8.481 8.481 0 0 0 1.893-3.84 8.423 8.423 0 0 0-1.2-6.35l-4.893-7.448-1.231-1.874-13.16 8.646-.131-.2 14.125-9.28 1.231 1.874 4.893 7.447a8.424 8.424 0 0 1 1.2 6.35 8.445 8.445 0 0 1-2.727 4.675z"/>
        <path fill="#5EC4EC" d="M44.474 191.713h-3.337c-3.67 0-6.673 3.232-6.673 7.182h13.347v-3.59c0-1.976-1.502-3.592-3.337-3.592"/>
        <path fill="#FBE1CD" d="M31.87 102.997c-2.63 1.405-3.453.275-1.523-1.433.028-.069 1.803-1.132 3.085-.763l-.179 1.401-1.382.795zM33.492 108.561c.868-1.89.013-2.613-1.1-3.446-.871-.652-1.894-.518-3.047.757l2.872 2.968.668-.051.607-.228z"/>
        <path fill="#00B0E5" d="M44.057 191.713h-2.92c-3.67 0-6.673 3.232-6.673 7.182h2.92c0-3.95 3.002-7.182 6.673-7.182"/>
        <path fill="#E8D1BF" d="M98.135 78.258c3.379 5.927 4.83 8.504 7.09 12.807 2.045 3.892 8.554 14.335 13.146 19.336l.394-2.158c-4.558-5.165-10.726-15.077-12.706-18.846-2.26-4.303-3.711-6.88-7.09-12.807-4.16.426-3.197 1.93-3.325 2.094-.464.593 2.05-.154 2.49-.426"/>
        <path fill="#00B0E5" d="M84.85 91.595c2.462.272 5.282-.834 7.194-3.752-4.744 3.855-8.33 3.179-11.05.359 0 0 1.21 3.1 3.856 3.393"/>
        <path fill="#AC9084" d="M89.722 32.587c-1.28-.08-2.388.956-2.472 2.312l4.64.289c.083-1.357-.887-2.521-2.168-2.6M76.793 32.17c-1.281-.08-2.388.956-2.472 2.312l4.638.289c.085-1.357-.885-2.521-2.166-2.601"/>
    </g>
</svg>
