<svg xmlns="http://www.w3.org/2000/svg" width="263" height="221" viewBox="0 0 263 221">
    <g fill="none" fill-rule="evenodd">
        <g fill="#D4ECF9">
            <path d="M247.398 61.71c-8.56 0-15.499 6.94-15.499 15.5h30.997c0-8.56-6.939-15.5-15.498-15.5"/>
            <path d="M219.022 54.687c-12.439 0-22.522 10.083-22.522 22.522h45.045c0-12.439-10.084-22.522-22.523-22.522"/>
        </g>
        <g fill="#D4ECF9">
            <path d="M88.365 7.93c-8.56 0-15.498 6.94-15.498 15.499h30.997c0-8.56-6.94-15.498-15.499-15.498"/>
            <path d="M59.99.906C47.55.906 37.467 10.99 37.467 23.43h45.045C82.512 10.99 72.428.906 59.99.906"/>
        </g>
        <g fill="#D4ECF9">
            <path d="M16.262 147.378c8.56 0 15.499 6.939 15.499 15.498H.764c0-8.559 6.939-15.498 15.498-15.498"/>
            <path d="M44.638 140.354c12.439 0 22.523 10.084 22.523 22.522H22.116c0-12.438 10.083-22.522 22.522-22.522"/>
        </g>
        <path stroke="#00B0E5" stroke-width="3" d="M131.246 216.126l-20.111 2.826"/>
        <path fill="#5EC4EC" d="M119.662 210.033l-3.297.515c-3.626.566-6.094 4.222-5.485 8.125l13.187-2.06-.554-3.547c-.305-1.952-2.038-3.316-3.85-3.033"/>
        <path fill="#00B0E5" d="M119.25 210.097l-2.885.45c-3.626.567-6.094 4.223-5.485 8.126l2.885-.45c-.61-3.903 1.859-7.56 5.485-8.126"/>
        <g fill="#D4ECF9">
            <path d="M200.948 186.94c8.56 0 15.499 6.938 15.499 15.498H185.45c0-8.56 6.939-15.498 15.498-15.498"/>
            <path d="M229.324 179.915c12.439 0 22.523 10.084 22.523 22.523H206.8c0-12.439 10.084-22.523 22.523-22.523"/>
        </g>
    </g>
</svg>
