<?xml version="1.0" encoding="UTF-8"?>
<svg width="120px" height="35px" viewBox="0 0 120 35" version="1.1" xmlns="http://www.w3.org/2000/svg" xmlns:xlink="http://www.w3.org/1999/xlink">
    <!-- Generator: Sketch 49.1 (51147) - http://www.bohemiancoding.com/sketch -->
    <title>develop-by</title>
    <desc>Created with Sketch.</desc>
    <defs></defs>
    <g id="index" stroke="none" stroke-width="1" fill="none" fill-rule="evenodd" opacity="0.5">
        <g id="reviews" transform="translate(-1237.000000, -1986.000000)" fill="#FFFFFF">
            <g id="develop-by" transform="translate(1237.000000, 1980.000000)">
                <path d="M0.72,8.808 L1.416,8.808 L1.416,9.984 L1.44,9.984 C1.61600088,9.55199784 1.90199802,9.21800118 2.298,8.982 C2.69400198,8.74599882 3.14399748,8.628 3.648,8.628 C4.12000236,8.628 4.52999826,8.71599912 4.878,8.892 C5.22600174,9.06800088 5.51599884,9.3059985 5.748,9.606 C5.98000116,9.9060015 6.15199944,10.253998 6.264,10.65 C6.37600056,11.046002 6.432,11.4639978 6.432,11.904 C6.432,12.3520022 6.37600056,12.771998 6.264,13.164 C6.15199944,13.556002 5.98000116,13.9019985 5.748,14.202 C5.51599884,14.5020015 5.22600174,14.7379991 4.878,14.91 C4.52999826,15.0820009 4.12000236,15.168 3.648,15.168 C3.41599884,15.168 3.1900011,15.1400003 2.97,15.084 C2.7499989,15.0279997 2.54400096,14.9440006 2.352,14.832 C2.15999904,14.7199994 1.99000074,14.5800008 1.842,14.412 C1.69399926,14.2439992 1.5800004,14.0480011 1.5,13.824 L1.476,13.824 L1.476,17.28 L0.72,17.28 L0.72,8.808 Z M3.648,14.544 C4.0080018,14.544 4.31599872,14.4660008 4.572,14.31 C4.82800128,14.1539992 5.03799918,13.9520012 5.202,13.704 C5.36600082,13.4559988 5.48599962,13.1740016 5.562,12.858 C5.63800038,12.5419984 5.676,12.2240016 5.676,11.904 C5.676,11.5839984 5.63800038,11.2660016 5.562,10.95 C5.48599962,10.6339984 5.36600082,10.3520012 5.202,10.104 C5.03799918,9.85599876 4.82800128,9.65400078 4.572,9.498 C4.31599872,9.34199922 4.0080018,9.264 3.648,9.264 C3.22399788,9.264 2.87400138,9.33599928 2.598,9.48 C2.32199862,9.62400072 2.10000084,9.8159988 1.932,10.056 C1.76399916,10.2960012 1.64600034,10.5759984 1.578,10.896 C1.50999966,11.2160016 1.476,11.5519982 1.476,11.904 C1.476,12.2240016 1.51399962,12.5419984 1.59,12.858 C1.66600038,13.1740016 1.78999914,13.4559988 1.962,13.704 C2.13400086,13.9520012 2.35799862,14.1539992 2.634,14.31 C2.91000138,14.4660008 3.247998,14.544 3.648,14.544 Z M9.348,15.168 C9.05999856,15.168 8.79000126,15.1340003 8.538,15.066 C8.28599874,14.9979997 8.06600094,14.8900007 7.878,14.742 C7.68999906,14.5939993 7.54200054,14.4060011 7.434,14.178 C7.32599946,13.9499989 7.272,13.6800016 7.272,13.368 C7.272,12.9359978 7.36799904,12.5980012 7.56,12.354 C7.75200096,12.1099988 8.00599842,11.9240006 8.322,11.796 C8.63800158,11.6679994 8.99399802,11.5780003 9.39,11.526 C9.78600198,11.4739997 10.187998,11.4240002 10.596,11.376 C10.7480008,11.3599999 10.8859994,11.3400001 11.01,11.316 C11.1340006,11.2919999 11.2359996,11.2500003 11.316,11.19 C11.3960004,11.1299997 11.4579998,11.0480005 11.502,10.944 C11.5460002,10.8399995 11.568,10.7040008 11.568,10.536 C11.568,10.2799987 11.5260004,10.0700008 11.442,9.906 C11.3579996,9.74199918 11.2420007,9.61200048 11.094,9.516 C10.9459993,9.41999952 10.774001,9.35400018 10.578,9.318 C10.381999,9.28199982 10.1720011,9.264 9.948,9.264 C9.4679976,9.264 9.07600152,9.37799886 8.772,9.606 C8.46799848,9.83400114 8.30800008,10.1999975 8.292,10.704 L7.536,10.704 C7.58400024,9.97599636 7.83399774,9.44800164 8.286,9.12 C8.73800226,8.79199836 9.3239964,8.628 10.044,8.628 C10.3160014,8.628 10.5879986,8.65399974 10.86,8.706 C11.1320014,8.75800026 11.3759989,8.85599928 11.592,9 C11.8080011,9.14400072 11.9839993,9.3459987 12.12,9.606 C12.2560007,9.8660013 12.324,10.2039979 12.324,10.62 L12.324,13.908 C12.324,14.2120015 12.4719985,14.364 12.768,14.364 C12.8640005,14.364 12.9439997,14.3480002 13.008,14.316 L13.008,14.952 C12.9199996,14.9680001 12.8420003,14.98 12.774,14.988 C12.7059997,14.996 12.6200005,15 12.516,15 C12.323999,15 12.1700006,14.9740003 12.054,14.922 C11.9379994,14.8699997 11.8480003,14.7960005 11.784,14.7 C11.7199997,14.6039995 11.6780001,14.4900007 11.658,14.358 C11.6379999,14.2259993 11.628,14.0800008 11.628,13.92 L11.604,13.92 C11.4679993,14.120001 11.3300007,14.2979992 11.19,14.454 C11.0499993,14.6100008 10.8940009,14.7399995 10.722,14.844 C10.5499991,14.9480005 10.3520011,15.0279997 10.128,15.084 C9.90399888,15.1400003 9.64400148,15.168 9.348,15.168 Z M9.408,14.544 C9.69600144,14.544 9.97199868,14.5000004 10.236,14.412 C10.5000013,14.3239996 10.729999,14.1960008 10.926,14.028 C11.122001,13.8599992 11.2779994,13.6560012 11.394,13.416 C11.5100006,13.1759988 11.568,12.9040015 11.568,12.6 L11.568,11.616 L11.544,11.616 C11.4959998,11.7040004 11.4040007,11.7679998 11.268,11.808 C11.1319993,11.8480002 11.0120005,11.8759999 10.908,11.892 C10.5879984,11.9480003 10.2580017,11.9979998 9.918,12.042 C9.5779983,12.0860002 9.2680014,12.1519996 8.988,12.24 C8.7079986,12.3280004 8.4780009,12.4559992 8.298,12.624 C8.1179991,12.7920008 8.028,13.0239985 8.028,13.32 C8.028,13.512001 8.06599962,13.6819993 8.142,13.83 C8.21800038,13.9780007 8.31999936,14.1059995 8.448,14.214 C8.57600064,14.3220005 8.72199918,14.4039997 8.886,14.46 C9.05000082,14.5160003 9.22399908,14.544 9.408,14.544 Z M16.008,15.168 C15.1839959,15.168 14.5620021,14.9780019 14.142,14.598 C13.7219979,14.2179981 13.4920002,13.7040032 13.452,13.056 L14.208,13.056 C14.2400002,13.2800011 14.2959996,13.4839991 14.376,13.668 C14.4560004,13.8520009 14.5679993,14.0079994 14.712,14.136 C14.8560007,14.2640006 15.0339989,14.3619997 15.246,14.43 C15.4580011,14.4980003 15.7159985,14.532 16.02,14.532 C16.3640017,14.532 16.6439989,14.4920004 16.86,14.412 C17.0760011,14.3319996 17.2459994,14.2260007 17.37,14.094 C17.4940006,13.9619993 17.5799998,13.8160008 17.628,13.656 C17.6760002,13.4959992 17.7,13.3360008 17.7,13.176 C17.7,12.8639984 17.598001,12.6000011 17.394,12.384 C17.189999,12.1679989 16.8520024,12.06 16.38,12.06 L15.348,12.06 L15.348,11.484 L16.2,11.484 C16.5600018,11.484 16.8679987,11.388001 17.124,11.196 C17.3800013,11.003999 17.508,10.7240018 17.508,10.356 C17.508,10.2439994 17.4900002,10.1240006 17.454,9.996 C17.4179998,9.86799936 17.3440006,9.75000054 17.232,9.642 C17.1199994,9.53399946 16.964001,9.44600034 16.764,9.378 C16.563999,9.30999966 16.3040016,9.276 15.984,9.276 C15.4159972,9.276 15.0060013,9.40199874 14.754,9.654 C14.5019987,9.90600126 14.3560002,10.2239981 14.316,10.608 L13.572,10.608 C13.6040002,10.2319981 13.6919993,9.91800126 13.836,9.666 C13.9800007,9.41399874 14.1599989,9.21200076 14.376,9.06 C14.5920011,8.90799924 14.8399986,8.80000032 15.12,8.736 C15.4000014,8.67199968 15.6919985,8.64 15.996,8.64 C16.3160016,8.64 16.6139986,8.6699997 16.89,8.73 C17.1660014,8.7900003 17.407999,8.88599934 17.616,9.018 C17.824001,9.15000066 17.9879994,9.32199894 18.108,9.534 C18.2280006,9.74600106 18.288,10.0039985 18.288,10.308 C18.288,10.4920009 18.2600003,10.6599992 18.204,10.812 C18.1479997,10.9640008 18.0740005,11.0999994 17.982,11.22 C17.8899995,11.3400006 17.7840006,11.4399996 17.664,11.52 C17.5439994,11.6000004 17.4200006,11.6519999 17.292,11.676 L17.292,11.7 C17.4360007,11.7240001 17.5799993,11.7679997 17.724,11.832 C17.8680007,11.8960003 17.9959994,11.9859994 18.108,12.102 C18.2200006,12.2180006 18.3119996,12.3619991 18.384,12.534 C18.4560004,12.7060009 18.492,12.9119988 18.492,13.152 C18.492,13.4880017 18.4240007,13.7819987 18.288,14.034 C18.1519993,14.2860013 17.9700011,14.4959992 17.742,14.664 C17.5139989,14.8320008 17.2500015,14.9579996 16.95,15.042 C16.6499985,15.1260004 16.3360016,15.168 16.008,15.168 Z M19.656,8.808 L20.352,8.808 L20.352,9.984 L20.376,9.984 C20.5520009,9.55199784 20.837998,9.21800118 21.234,8.982 C21.630002,8.74599882 22.0799975,8.628 22.584,8.628 C23.0560024,8.628 23.4659983,8.71599912 23.814,8.892 C24.1620017,9.06800088 24.4519988,9.3059985 24.684,9.606 C24.9160012,9.9060015 25.0879994,10.253998 25.2,10.65 C25.3120006,11.046002 25.368,11.4639978 25.368,11.904 C25.368,12.3520022 25.3120006,12.771998 25.2,13.164 C25.0879994,13.556002 24.9160012,13.9019985 24.684,14.202 C24.4519988,14.5020015 24.1620017,14.7379991 23.814,14.91 C23.4659983,15.0820009 23.0560024,15.168 22.584,15.168 C22.3519988,15.168 22.1260011,15.1400003 21.906,15.084 C21.6859989,15.0279997 21.480001,14.9440006 21.288,14.832 C21.095999,14.7199994 20.9260007,14.5800008 20.778,14.412 C20.6299993,14.2439992 20.5160004,14.0480011 20.436,13.824 L20.412,13.824 L20.412,17.28 L19.656,17.28 L19.656,8.808 Z M22.584,14.544 C22.9440018,14.544 23.2519987,14.4660008 23.508,14.31 C23.7640013,14.1539992 23.9739992,13.9520012 24.138,13.704 C24.3020008,13.4559988 24.4219996,13.1740016 24.498,12.858 C24.5740004,12.5419984 24.612,12.2240016 24.612,11.904 C24.612,11.5839984 24.5740004,11.2660016 24.498,10.95 C24.4219996,10.6339984 24.3020008,10.3520012 24.138,10.104 C23.9739992,9.85599876 23.7640013,9.65400078 23.508,9.498 C23.2519987,9.34199922 22.9440018,9.264 22.584,9.264 C22.1599979,9.264 21.8100014,9.33599928 21.534,9.48 C21.2579986,9.62400072 21.0360008,9.8159988 20.868,10.056 C20.6999992,10.2960012 20.5820003,10.5759984 20.514,10.896 C20.4459997,11.2160016 20.412,11.5519982 20.412,11.904 C20.412,12.2240016 20.4499996,12.5419984 20.526,12.858 C20.6020004,13.1740016 20.7259991,13.4559988 20.898,13.704 C21.0700009,13.9520012 21.2939986,14.1539992 21.57,14.31 C21.8460014,14.4660008 22.183998,14.544 22.584,14.544 Z M28.284,15.168 C27.9959986,15.168 27.7260013,15.1340003 27.474,15.066 C27.2219987,14.9979997 27.0020009,14.8900007 26.814,14.742 C26.6259991,14.5939993 26.4780005,14.4060011 26.37,14.178 C26.2619995,13.9499989 26.208,13.6800016 26.208,13.368 C26.208,12.9359978 26.303999,12.5980012 26.496,12.354 C26.688001,12.1099988 26.9419984,11.9240006 27.258,11.796 C27.5740016,11.6679994 27.929998,11.5780003 28.326,11.526 C28.722002,11.4739997 29.123998,11.4240002 29.532,11.376 C29.6840008,11.3599999 29.8219994,11.3400001 29.946,11.316 C30.0700006,11.2919999 30.1719996,11.2500003 30.252,11.19 C30.3320004,11.1299997 30.3939998,11.0480005 30.438,10.944 C30.4820002,10.8399995 30.504,10.7040008 30.504,10.536 C30.504,10.2799987 30.4620004,10.0700008 30.378,9.906 C30.2939996,9.74199918 30.1780007,9.61200048 30.03,9.516 C29.8819993,9.41999952 29.710001,9.35400018 29.514,9.318 C29.317999,9.28199982 29.1080011,9.264 28.884,9.264 C28.4039976,9.264 28.0120015,9.37799886 27.708,9.606 C27.4039985,9.83400114 27.2440001,10.1999975 27.228,10.704 L26.472,10.704 C26.5200002,9.97599636 26.7699977,9.44800164 27.222,9.12 C27.6740023,8.79199836 28.2599964,8.628 28.98,8.628 C29.2520014,8.628 29.5239986,8.65399974 29.796,8.706 C30.0680014,8.75800026 30.3119989,8.85599928 30.528,9 C30.7440011,9.14400072 30.9199993,9.3459987 31.056,9.606 C31.1920007,9.8660013 31.26,10.2039979 31.26,10.62 L31.26,13.908 C31.26,14.2120015 31.4079985,14.364 31.704,14.364 C31.8000005,14.364 31.8799997,14.3480002 31.944,14.316 L31.944,14.952 C31.8559996,14.9680001 31.7780003,14.98 31.71,14.988 C31.6419997,14.996 31.5560005,15 31.452,15 C31.259999,15 31.1060006,14.9740003 30.99,14.922 C30.8739994,14.8699997 30.7840003,14.7960005 30.72,14.7 C30.6559997,14.6039995 30.6140001,14.4900007 30.594,14.358 C30.5739999,14.2259993 30.564,14.0800008 30.564,13.92 L30.54,13.92 C30.4039993,14.120001 30.2660007,14.2979992 30.126,14.454 C29.9859993,14.6100008 29.8300009,14.7399995 29.658,14.844 C29.4859991,14.9480005 29.2880011,15.0279997 29.064,15.084 C28.8399989,15.1400003 28.5800015,15.168 28.284,15.168 Z M28.344,14.544 C28.6320014,14.544 28.9079987,14.5000004 29.172,14.412 C29.4360013,14.3239996 29.665999,14.1960008 29.862,14.028 C30.058001,13.8599992 30.2139994,13.6560012 30.33,13.416 C30.4460006,13.1759988 30.504,12.9040015 30.504,12.6 L30.504,11.616 L30.48,11.616 C30.4319998,11.7040004 30.3400007,11.7679998 30.204,11.808 C30.0679993,11.8480002 29.9480005,11.8759999 29.844,11.892 C29.5239984,11.9480003 29.1940017,11.9979998 28.854,12.042 C28.5139983,12.0860002 28.2040014,12.1519996 27.924,12.24 C27.6439986,12.3280004 27.4140009,12.4559992 27.234,12.624 C27.0539991,12.7920008 26.964,13.0239985 26.964,13.32 C26.964,13.512001 27.0019996,13.6819993 27.078,13.83 C27.1540004,13.9780007 27.2559994,14.1059995 27.384,14.214 C27.5120006,14.3220005 27.6579992,14.4039997 27.822,14.46 C27.9860008,14.5160003 28.1599991,14.544 28.344,14.544 Z M35.448,15.168 C34.8799972,15.168 34.4120018,15.064001 34.044,14.856 C33.6759982,14.647999 33.3840011,14.3720017 33.168,14.028 C32.9519989,13.6839983 32.8000004,13.2880022 32.712,12.84 C32.6239996,12.3919978 32.58,11.9280024 32.58,11.448 C32.58,11.1519985 32.5919999,10.8420016 32.616,10.518 C32.6400001,10.1939984 32.6819997,9.87400158 32.742,9.558 C32.8020003,9.24199842 32.8799995,8.94000144 32.976,8.652 C33.0720005,8.36399856 33.1959992,8.10400116 33.348,7.872 C33.6280014,7.43999784 33.963998,7.13200092 34.356,6.948 C34.748002,6.76399908 35.239997,6.6520002 35.832,6.612 L36.408,6.576 C36.7280016,6.55999992 36.9439994,6.52800024 37.056,6.48 C37.1680006,6.43199976 37.2479998,6.35600052 37.296,6.252 L38.136,6.252 C38.0719997,6.62000184 37.9100013,6.86999934 37.65,7.002 C37.3899987,7.13400066 36.9960026,7.21599984 36.468,7.248 L35.556,7.308 C34.8519965,7.35600024 34.3160018,7.60799772 33.948,8.064 C33.5799982,8.52000228 33.3280007,9.2279952 33.192,10.188 L33.228,10.188 C33.436001,9.77199792 33.743998,9.43800126 34.152,9.186 C34.560002,8.93399874 35.0159975,8.808 35.52,8.808 C35.9360021,8.808 36.3139983,8.87999928 36.654,9.024 C36.9940017,9.16800072 37.2879988,9.37599864 37.536,9.648 C37.7840012,9.92000136 37.9759993,10.251998 38.112,10.644 C38.2480007,11.036002 38.316,11.4759976 38.316,11.964 C38.316,12.4440024 38.2480007,12.881998 38.112,13.278 C37.9759993,13.674002 37.7820013,14.0119986 37.53,14.292 C37.2779987,14.5720014 36.9760018,14.7879992 36.624,14.94 C36.2719982,15.0920008 35.8800022,15.168 35.448,15.168 Z M35.448,14.544 C35.7520015,14.544 36.0339987,14.4820006 36.294,14.358 C36.5540013,14.2339994 36.7779991,14.0580011 36.966,13.83 C37.1540009,13.6019989 37.2999995,13.3300016 37.404,13.014 C37.5080005,12.6979984 37.56,12.3480019 37.56,11.964 C37.56,11.5879981 37.5080005,11.2440016 37.404,10.932 C37.2999995,10.6199984 37.1540009,10.3540011 36.966,10.134 C36.7779991,9.9139989 36.5580013,9.74200062 36.306,9.618 C36.0539987,9.49399938 35.7800015,9.432 35.484,9.432 C35.1639984,9.432 34.8720013,9.4919994 34.608,9.612 C34.3439987,9.7320006 34.1180009,9.9019989 33.93,10.122 C33.7419991,10.3420011 33.5960005,10.6079984 33.492,10.92 C33.3879995,11.2320016 33.336,11.5799981 33.336,11.964 C33.336,12.3480019 33.3879995,12.6979984 33.492,13.014 C33.5960005,13.3300016 33.7419991,13.6019989 33.93,13.83 C34.1180009,14.0580011 34.3419987,14.2339994 34.602,14.358 C34.8620013,14.4820006 35.1439985,14.544 35.448,14.544 Z M42.06,15.168 C41.5879976,15.168 41.1700018,15.0820009 40.806,14.91 C40.4419982,14.7379991 40.1360012,14.5040015 39.888,14.208 C39.6399988,13.9119985 39.4520006,13.566002 39.324,13.17 C39.1959994,12.773998 39.132,12.3520022 39.132,11.904 C39.132,11.4639978 39.1959994,11.044002 39.324,10.644 C39.4520006,10.243998 39.6399988,9.89600148 39.888,9.6 C40.1360012,9.30399852 40.4419982,9.06800088 40.806,8.892 C41.1700018,8.71599912 41.5879976,8.628 42.06,8.628 C42.5320024,8.628 42.9499982,8.71599912 43.314,8.892 C43.6780018,9.06800088 43.9839988,9.30399852 44.232,9.6 C44.4800012,9.89600148 44.6679994,10.243998 44.796,10.644 C44.9240006,11.044002 44.988,11.4639978 44.988,11.904 C44.988,12.3520022 44.9240006,12.773998 44.796,13.17 C44.6679994,13.566002 44.4800012,13.9119985 44.232,14.208 C43.9839988,14.5040015 43.6780018,14.7379991 43.314,14.91 C42.9499982,15.0820009 42.5320024,15.168 42.06,15.168 Z M42.06,14.544 C42.4200018,14.544 42.7359986,14.4680008 43.008,14.316 C43.2800014,14.1639992 43.5059991,13.9640012 43.686,13.716 C43.8660009,13.4679988 44.0019995,13.1860016 44.094,12.87 C44.1860005,12.5539984 44.232,12.2320016 44.232,11.904 C44.232,11.5759984 44.1860005,11.2540016 44.094,10.938 C44.0019995,10.6219984 43.8660009,10.3400012 43.686,10.092 C43.5059991,9.84399876 43.2800014,9.64400076 43.008,9.492 C42.7359986,9.33999924 42.4200018,9.264 42.06,9.264 C41.6999982,9.264 41.3840014,9.33999924 41.112,9.492 C40.8399986,9.64400076 40.6140009,9.84399876 40.434,10.092 C40.2539991,10.3400012 40.1180005,10.6219984 40.026,10.938 C39.9339995,11.2540016 39.888,11.5759984 39.888,11.904 C39.888,12.2320016 39.9339995,12.5539984 40.026,12.87 C40.1180005,13.1860016 40.2539991,13.4679988 40.434,13.716 C40.6140009,13.9640012 40.8399986,14.1639992 41.112,14.316 C41.3840014,14.4680008 41.6999982,14.544 42.06,14.544 Z M47.676,9.444 L45.384,9.444 L45.384,8.808 L50.724,8.808 L50.724,9.444 L48.432,9.444 L48.432,15 L47.676,15 L47.676,9.444 Z M51.432,8.808 L52.188,8.808 L52.188,11.988 L55.62,8.808 L56.628,8.808 L54,11.232 L56.784,15 L55.836,15 L53.448,11.748 L52.188,12.912 L52.188,15 L51.432,15 L51.432,8.808 Z M59.148,15.168 C58.8599986,15.168 58.5900013,15.1340003 58.338,15.066 C58.0859987,14.9979997 57.8660009,14.8900007 57.678,14.742 C57.4899991,14.5939993 57.3420005,14.4060011 57.234,14.178 C57.1259995,13.9499989 57.072,13.6800016 57.072,13.368 C57.072,12.9359978 57.167999,12.5980012 57.36,12.354 C57.552001,12.1099988 57.8059984,11.9240006 58.122,11.796 C58.4380016,11.6679994 58.793998,11.5780003 59.19,11.526 C59.586002,11.4739997 59.987998,11.4240002 60.396,11.376 C60.5480008,11.3599999 60.6859994,11.3400001 60.81,11.316 C60.9340006,11.2919999 61.0359996,11.2500003 61.116,11.19 C61.1960004,11.1299997 61.2579998,11.0480005 61.302,10.944 C61.3460002,10.8399995 61.368,10.7040008 61.368,10.536 C61.368,10.2799987 61.3260004,10.0700008 61.242,9.906 C61.1579996,9.74199918 61.0420007,9.61200048 60.894,9.516 C60.7459993,9.41999952 60.574001,9.35400018 60.378,9.318 C60.181999,9.28199982 59.9720011,9.264 59.748,9.264 C59.2679976,9.264 58.8760015,9.37799886 58.572,9.606 C58.2679985,9.83400114 58.1080001,10.1999975 58.092,10.704 L57.336,10.704 C57.3840002,9.97599636 57.6339977,9.44800164 58.086,9.12 C58.5380023,8.79199836 59.1239964,8.628 59.844,8.628 C60.1160014,8.628 60.3879986,8.65399974 60.66,8.706 C60.9320014,8.75800026 61.1759989,8.85599928 61.392,9 C61.6080011,9.14400072 61.7839993,9.3459987 61.92,9.606 C62.0560007,9.8660013 62.124,10.2039979 62.124,10.62 L62.124,13.908 C62.124,14.2120015 62.2719985,14.364 62.568,14.364 C62.6640005,14.364 62.7439997,14.3480002 62.808,14.316 L62.808,14.952 C62.7199996,14.9680001 62.6420003,14.98 62.574,14.988 C62.5059997,14.996 62.4200005,15 62.316,15 C62.123999,15 61.9700006,14.9740003 61.854,14.922 C61.7379994,14.8699997 61.6480003,14.7960005 61.584,14.7 C61.5199997,14.6039995 61.4780001,14.4900007 61.458,14.358 C61.4379999,14.2259993 61.428,14.0800008 61.428,13.92 L61.404,13.92 C61.2679993,14.120001 61.1300007,14.2979992 60.99,14.454 C60.8499993,14.6100008 60.6940009,14.7399995 60.522,14.844 C60.3499991,14.9480005 60.1520011,15.0279997 59.928,15.084 C59.7039989,15.1400003 59.4440015,15.168 59.148,15.168 Z M59.208,14.544 C59.4960014,14.544 59.7719987,14.5000004 60.036,14.412 C60.3000013,14.3239996 60.529999,14.1960008 60.726,14.028 C60.922001,13.8599992 61.0779994,13.6560012 61.194,13.416 C61.3100006,13.1759988 61.368,12.9040015 61.368,12.6 L61.368,11.616 L61.344,11.616 C61.2959998,11.7040004 61.2040007,11.7679998 61.068,11.808 C60.9319993,11.8480002 60.8120005,11.8759999 60.708,11.892 C60.3879984,11.9480003 60.0580017,11.9979998 59.718,12.042 C59.3779983,12.0860002 59.0680014,12.1519996 58.788,12.24 C58.5079986,12.3280004 58.2780009,12.4559992 58.098,12.624 C57.9179991,12.7920008 57.828,13.0239985 57.828,13.32 C57.828,13.512001 57.8659996,13.6819993 57.942,13.83 C58.0180004,13.9780007 58.1199994,14.1059995 58.248,14.214 C58.3760006,14.3220005 58.5219992,14.4039997 58.686,14.46 C58.8500008,14.5160003 59.0239991,14.544 59.208,14.544 Z M69.588,15.168 C69.1159976,15.168 68.6980018,15.0820009 68.334,14.91 C67.9699982,14.7379991 67.6640012,14.5040015 67.416,14.208 C67.1679988,13.9119985 66.9800006,13.566002 66.852,13.17 C66.7239994,12.773998 66.66,12.3520022 66.66,11.904 C66.66,11.4639978 66.7239994,11.044002 66.852,10.644 C66.9800006,10.243998 67.1679988,9.89600148 67.416,9.6 C67.6640012,9.30399852 67.9699982,9.06800088 68.334,8.892 C68.6980018,8.71599912 69.1159976,8.628 69.588,8.628 C70.2520033,8.628 70.8139977,8.80399824 71.274,9.156 C71.7340023,9.50800176 72.0079996,10.0399964 72.096,10.752 L71.34,10.752 C71.2359995,10.2879977 71.0440014,9.92400132 70.764,9.66 C70.4839986,9.39599868 70.0920025,9.264 69.588,9.264 C69.2279982,9.264 68.9120014,9.33999924 68.64,9.492 C68.3679986,9.64400076 68.1420009,9.84399876 67.962,10.092 C67.7819991,10.3400012 67.6460005,10.6219984 67.554,10.938 C67.4619995,11.2540016 67.416,11.5759984 67.416,11.904 C67.416,12.2320016 67.4619995,12.5539984 67.554,12.87 C67.6460005,13.1860016 67.7819991,13.4679988 67.962,13.716 C68.1420009,13.9640012 68.3679986,14.1639992 68.64,14.316 C68.9120014,14.4680008 69.2279982,14.544 69.588,14.544 C69.8200012,14.544 70.039999,14.5000004 70.248,14.412 C70.456001,14.3239996 70.6399992,14.2020008 70.8,14.046 C70.9600008,13.8899992 71.0919995,13.7040011 71.196,13.488 C71.3000005,13.2719989 71.3639999,13.0360013 71.388,12.78 L72.144,12.78 C72.0399995,13.5320038 71.7640022,14.1179979 71.316,14.538 C70.8679978,14.9580021 70.2920035,15.168 69.588,15.168 Z M74.94,15.168 C74.6519986,15.168 74.3820013,15.1340003 74.13,15.066 C73.8779987,14.9979997 73.6580009,14.8900007 73.47,14.742 C73.2819991,14.5939993 73.1340005,14.4060011 73.026,14.178 C72.9179995,13.9499989 72.864,13.6800016 72.864,13.368 C72.864,12.9359978 72.959999,12.5980012 73.152,12.354 C73.344001,12.1099988 73.5979984,11.9240006 73.914,11.796 C74.2300016,11.6679994 74.585998,11.5780003 74.982,11.526 C75.378002,11.4739997 75.779998,11.4240002 76.188,11.376 C76.3400008,11.3599999 76.4779994,11.3400001 76.602,11.316 C76.7260006,11.2919999 76.8279996,11.2500003 76.908,11.19 C76.9880004,11.1299997 77.0499998,11.0480005 77.094,10.944 C77.1380002,10.8399995 77.16,10.7040008 77.16,10.536 C77.16,10.2799987 77.1180004,10.0700008 77.034,9.906 C76.9499996,9.74199918 76.8340007,9.61200048 76.686,9.516 C76.5379993,9.41999952 76.366001,9.35400018 76.17,9.318 C75.973999,9.28199982 75.7640011,9.264 75.54,9.264 C75.0599976,9.264 74.6680015,9.37799886 74.364,9.606 C74.0599985,9.83400114 73.9000001,10.1999975 73.884,10.704 L73.128,10.704 C73.1760002,9.97599636 73.4259977,9.44800164 73.878,9.12 C74.3300023,8.79199836 74.9159964,8.628 75.636,8.628 C75.9080014,8.628 76.1799986,8.65399974 76.452,8.706 C76.7240014,8.75800026 76.9679989,8.85599928 77.184,9 C77.4000011,9.14400072 77.5759993,9.3459987 77.712,9.606 C77.8480007,9.8660013 77.916,10.2039979 77.916,10.62 L77.916,13.908 C77.916,14.2120015 78.0639985,14.364 78.36,14.364 C78.4560005,14.364 78.5359997,14.3480002 78.6,14.316 L78.6,14.952 C78.5119996,14.9680001 78.4340003,14.98 78.366,14.988 C78.2979997,14.996 78.2120005,15 78.108,15 C77.915999,15 77.7620006,14.9740003 77.646,14.922 C77.5299994,14.8699997 77.4400003,14.7960005 77.376,14.7 C77.3119997,14.6039995 77.2700001,14.4900007 77.25,14.358 C77.2299999,14.2259993 77.22,14.0800008 77.22,13.92 L77.196,13.92 C77.0599993,14.120001 76.9220007,14.2979992 76.782,14.454 C76.6419993,14.6100008 76.4860009,14.7399995 76.314,14.844 C76.1419991,14.9480005 75.9440011,15.0279997 75.72,15.084 C75.4959989,15.1400003 75.2360015,15.168 74.94,15.168 Z M75,14.544 C75.2880014,14.544 75.5639987,14.5000004 75.828,14.412 C76.0920013,14.3239996 76.321999,14.1960008 76.518,14.028 C76.714001,13.8599992 76.8699994,13.6560012 76.986,13.416 C77.1020006,13.1759988 77.16,12.9040015 77.16,12.6 L77.16,11.616 L77.136,11.616 C77.0879998,11.7040004 76.9960007,11.7679998 76.86,11.808 C76.7239993,11.8480002 76.6040005,11.8759999 76.5,11.892 C76.1799984,11.9480003 75.8500017,11.9979998 75.51,12.042 C75.1699983,12.0860002 74.8600014,12.1519996 74.58,12.24 C74.2999986,12.3280004 74.0700009,12.4559992 73.89,12.624 C73.7099991,12.7920008 73.62,13.0239985 73.62,13.32 C73.62,13.512001 73.6579996,13.6819993 73.734,13.83 C73.8100004,13.9780007 73.9119994,14.1059995 74.04,14.214 C74.1680006,14.3220005 74.3139992,14.4039997 74.478,14.46 C74.6420008,14.5160003 74.8159991,14.544 75,14.544 Z M79.416,15 L79.416,8.808 L80.172,8.808 L80.172,14.112 L83.592,8.808 L84.528,8.808 L84.528,15 L83.772,15 L83.772,9.696 L80.352,15 L79.416,15 Z M81.948,7.896 C81.4439975,7.896 81.0520014,7.76200134 80.772,7.494 C80.4919986,7.22599866 80.3200003,6.84000252 80.256,6.336 L80.724,6.336 C80.7640002,6.64000152 80.8899989,6.87999912 81.102,7.056 C81.3140011,7.23200088 81.5999982,7.32 81.96,7.32 C82.3040017,7.32 82.5859989,7.23400086 82.806,7.062 C83.0260011,6.88999914 83.1679997,6.64800156 83.232,6.336 L83.7,6.336 C83.6119996,6.84000252 83.4240014,7.22599866 83.136,7.494 C82.8479986,7.76200134 82.4520025,7.896 81.948,7.896 Z M87.516,9.444 L85.224,9.444 L85.224,8.808 L90.564,8.808 L90.564,9.444 L88.272,9.444 L88.272,15 L87.516,15 L87.516,9.444 Z M93.012,15.168 C92.7239986,15.168 92.4540013,15.1340003 92.202,15.066 C91.9499987,14.9979997 91.7300009,14.8900007 91.542,14.742 C91.3539991,14.5939993 91.2060005,14.4060011 91.098,14.178 C90.9899995,13.9499989 90.936,13.6800016 90.936,13.368 C90.936,12.9359978 91.031999,12.5980012 91.224,12.354 C91.416001,12.1099988 91.6699984,11.9240006 91.986,11.796 C92.3020016,11.6679994 92.657998,11.5780003 93.054,11.526 C93.450002,11.4739997 93.851998,11.4240002 94.26,11.376 C94.4120008,11.3599999 94.5499994,11.3400001 94.674,11.316 C94.7980006,11.2919999 94.8999996,11.2500003 94.98,11.19 C95.0600004,11.1299997 95.1219998,11.0480005 95.166,10.944 C95.2100002,10.8399995 95.232,10.7040008 95.232,10.536 C95.232,10.2799987 95.1900004,10.0700008 95.106,9.906 C95.0219996,9.74199918 94.9060007,9.61200048 94.758,9.516 C94.6099993,9.41999952 94.438001,9.35400018 94.242,9.318 C94.045999,9.28199982 93.8360011,9.264 93.612,9.264 C93.1319976,9.264 92.7400015,9.37799886 92.436,9.606 C92.1319985,9.83400114 91.9720001,10.1999975 91.956,10.704 L91.2,10.704 C91.2480002,9.97599636 91.4979977,9.44800164 91.95,9.12 C92.4020023,8.79199836 92.9879964,8.628 93.708,8.628 C93.9800014,8.628 94.2519986,8.65399974 94.524,8.706 C94.7960014,8.75800026 95.0399989,8.85599928 95.256,9 C95.4720011,9.14400072 95.6479993,9.3459987 95.784,9.606 C95.9200007,9.8660013 95.988,10.2039979 95.988,10.62 L95.988,13.908 C95.988,14.2120015 96.1359985,14.364 96.432,14.364 C96.5280005,14.364 96.6079997,14.3480002 96.672,14.316 L96.672,14.952 C96.5839996,14.9680001 96.5060003,14.98 96.438,14.988 C96.3699997,14.996 96.2840005,15 96.18,15 C95.987999,15 95.8340006,14.9740003 95.718,14.922 C95.6019994,14.8699997 95.5120003,14.7960005 95.448,14.7 C95.3839997,14.6039995 95.3420001,14.4900007 95.322,14.358 C95.3019999,14.2259993 95.292,14.0800008 95.292,13.92 L95.268,13.92 C95.1319993,14.120001 94.9940007,14.2979992 94.854,14.454 C94.7139993,14.6100008 94.5580009,14.7399995 94.386,14.844 C94.2139991,14.9480005 94.0160011,15.0279997 93.792,15.084 C93.5679989,15.1400003 93.3080015,15.168 93.012,15.168 Z M93.072,14.544 C93.3600014,14.544 93.6359987,14.5000004 93.9,14.412 C94.1640013,14.3239996 94.393999,14.1960008 94.59,14.028 C94.786001,13.8599992 94.9419994,13.6560012 95.058,13.416 C95.1740006,13.1759988 95.232,12.9040015 95.232,12.6 L95.232,11.616 L95.208,11.616 C95.1599998,11.7040004 95.0680007,11.7679998 94.932,11.808 C94.7959993,11.8480002 94.6760005,11.8759999 94.572,11.892 C94.2519984,11.9480003 93.9220017,11.9979998 93.582,12.042 C93.2419983,12.0860002 92.9320014,12.1519996 92.652,12.24 C92.3719986,12.3280004 92.1420009,12.4559992 91.962,12.624 C91.7819991,12.7920008 91.692,13.0239985 91.692,13.32 C91.692,13.512001 91.7299996,13.6819993 91.806,13.83 C91.8820004,13.9780007 91.9839994,14.1059995 92.112,14.214 C92.2400006,14.3220005 92.3859992,14.4039997 92.55,14.46 C92.7140008,14.5160003 92.8879991,14.544 93.072,14.544 Z" id="Text_link-/-Secondary-/-Default-Copy"></path>
                <g id="wonderbase" transform="translate(0.000000, 20.000000)">
                    <g id="logo">
                        <path d="M64.6553449,12.1474775 C65.1214026,11.1002261 65.7628584,10.1805181 66.2980731,9.64144764 C66.8312833,9.10337363 67.2592546,8.94195143 67.5168392,9.05853413 C67.775426,9.1771097 67.8676353,9.57269374 67.5549256,10.2353219 C67.2422159,10.8979501 66.5265918,11.8286188 65.684681,12.5221364 C65.2106051,12.9127383 64.6974404,13.2286077 64.1672371,13.5115948 C64.2925214,13.0602105 64.4578968,12.5918868 64.6553449,12.1474775 M101.885841,16.8476536 C101.431811,16.8616037 101.300513,16.9164075 100.952723,16.8067998 C102.84602,14.4880994 103.761097,13.0442675 104.970843,10.7365279 C105.032984,10.6179523 105.164282,10.5591628 105.29558,10.5920451 C105.425875,10.6249274 105.514076,10.7385208 105.512071,10.8730393 C105.476991,13.4259015 105.325648,16.7330638 101.885841,16.8476536 M92.4303816,16.9114253 C90.6012302,16.9114253 94.4870493,8.92501206 96.0977047,8.93298353 C97.9428925,8.94494073 94.5361608,16.9114253 92.4303816,16.9114253 M82.6471782,16.7181173 C80.7939722,16.8077963 82.8606627,11.8854155 83.1733724,11.1171654 C83.8058077,11.6502573 84.7138686,11.8186545 85.4926361,11.8206474 C85.3052107,12.8320272 83.8749647,16.6603241 82.6471782,16.7181173 M51.4924711,16.9114253 C49.6633198,16.9114253 53.5491388,8.92501206 55.1597943,8.93298353 C57.004982,8.94494073 53.5992526,16.9114253 51.4924711,16.9114253 M27.3597007,16.9114253 C25.5305494,16.9114253 29.4163684,8.92501206 31.0280262,8.93298353 C32.8742162,8.94494073 29.4674844,16.9114253 27.3597007,16.9114253 M114.5135,12.1474775 C114.845253,11.4011489 115.621014,10.1805181 116.155226,9.64144764 C116.689439,9.10337363 117.116408,8.94195143 117.373992,9.05853413 C117.633581,9.1771097 117.723786,9.57269374 117.412079,10.2353219 C117.098367,10.8979501 116.199326,11.9800767 115.541834,12.5221364 C114.885344,13.0641962 114.554593,13.2286077 114.02439,13.5115948 C114.149675,13.0602105 114.180745,12.8928097 114.5135,12.1474775 M25.3050376,9.2877138 C21.7469624,13.1070428 20.7005876,20.2155983 25.2428965,20.2155983 C29.5566869,20.2155983 31.8388664,16.4859483 33.0907075,12.7802127 C33.3623239,11.9711088 33.6128926,11.0185185 33.6379495,10.1187392 C34.011798,10.0310531 34.3615918,9.94635624 34.6642788,9.86664157 C35.1624093,9.73511237 35.5142077,9.6195261 35.7417241,9.60059387 C35.9682382,9.58166164 36.0885112,9.65440127 35.9151176,10.2124039 C35.7397196,10.7714031 35.361862,11.564564 34.8236405,12.7951592 C34.285419,14.0267508 33.869475,14.8428297 33.4986333,15.9757744 C33.1277917,17.1077227 32.9954914,17.9546911 33.0937143,18.5655047 C33.190935,19.1753219 33.5176765,19.5499809 33.9596797,19.7492675 C34.4026851,19.9485542 34.9599498,19.973465 35.533251,19.6386634 C36.1055498,19.3018689 36.6938851,18.6063585 37.3513773,17.522239 C38.0078672,16.4381195 38.5390728,15.5692296 39.2416674,14.4422635 C39.6756523,13.7457566 40.8813888,11.7708257 41.5158287,11.7837793 C41.7002472,11.7877651 41.6952359,12.2271922 41.0968779,13.4856875 C40.2409353,15.2852461 37.7392576,19.9874151 41.8976954,20.049194 C43.2798322,20.0701191 44.8493944,18.8584561 46.1824197,17.552132 C46.1914402,17.6448003 46.2034675,17.7344793 46.2164971,17.821169 C46.2435585,18.000527 46.2796404,18.1689242 46.3227382,18.3273571 C46.5382273,19.1075644 46.9361303,19.6107633 47.4402745,19.8977361 C47.9444187,20.1837125 48.5527994,20.2544592 49.2964873,20.0641405 C50.0391728,19.8728253 50.9171655,19.4204445 51.7059557,18.8943277 C52.133927,18.6093478 52.5358391,18.3024463 52.9006671,17.993552 C52.9357467,18.1151168 52.9798468,18.2376781 53.0299605,18.3622323 C53.2334223,18.8544704 53.5741957,19.3726157 53.9811192,19.6914744 C54.3870405,20.0103331 54.8591119,20.1318979 55.4634835,20.0023616 C56.0688575,19.8728253 56.8085362,19.4931841 57.4870762,19.0089175 C58.1455707,18.538601 58.7469355,17.9686411 59.3172298,17.3249452 C59.3192343,17.3369024 59.3222412,17.349856 59.3242457,17.3618132 C59.4906233,18.2386746 59.8885264,18.957103 60.4187297,19.4194481 C60.9499353,19.8817932 61.6124389,20.0870584 62.5044634,20.1468444 C63.3974901,20.2046376 64.5190355,20.1169514 65.753838,19.2978832 C66.9876381,18.478815 68.3326908,16.9283647 69.5694978,15.3450321 C70.8053025,13.7636924 72.4480307,10.8620785 73.0052955,9.90550247 C73.5625602,8.94892646 73.5806012,8.86921179 73.8031061,8.38693805 C74.0185952,8.53739949 74.1118068,8.57426752 74.3393231,8.80942579 C74.5658372,9.04558049 74.6530351,9.4820183 74.3884346,9.87162374 C73.0022886,11.9173014 69.7719573,15.7814699 69.7719573,18.0543344 C69.7719573,19.472259 70.3342334,20.3102595 71.6883065,20.3102595 C74.0115793,20.3102595 75.8998648,18.747852 77.3100653,17.2033803 C77.4513861,19.08365 78.4556653,20.288338 80.7699176,20.1558123 C84.6336866,19.9316148 86.8567319,14.7073148 87.2596464,11.415099 C87.6605563,11.3353843 88.5175011,11.1450656 89.3564051,10.8909751 C89.2912572,10.9796576 89.648067,10.4635051 89.1659729,11.1580192 C88.6838787,11.8535297 87.5011946,14.4512314 87.3177783,15.2164922 C87.134362,15.9807566 87.2075281,15.7206875 87.1734507,15.9598315 C87.0692142,16.6663027 87.0732233,17.29007 87.1534053,17.821169 C87.1814689,18.000527 87.1313552,17.8570406 87.2606486,18.3273571 C87.3899421,18.7956808 87.8740408,19.6107633 88.3771827,19.8977361 C88.8813268,20.1837125 89.4907099,20.2544592 90.2343977,20.0641405 C90.9770833,19.8728253 92.0344831,19.2998761 92.6438661,18.8943277 C93.2512446,18.4897758 93.4727473,18.3024463 93.8385776,17.993552 C94.0560712,19.1723326 95.0924232,20.1647802 96.3893667,20.1647802 C97.7594762,20.1647802 99.0534129,18.8714097 99.9354146,17.8819514 C100.257145,19.7193745 102.475179,20.4716817 104.279273,20.4467709 C106.390064,20.4168779 108.894748,19.0129033 109.08919,16.4112158 L109.092196,16.3912871 C109.094201,16.7031708 109.119258,17.0011043 109.167367,17.283095 C109.172378,17.3090023 109.096205,16.9094325 109.182401,17.3618132 C109.267594,17.8131975 109.745679,18.957103 110.276885,19.4194481 C110.807088,19.8817932 111.469592,20.0870584 112.361616,20.1468444 C115.023658,20.3222167 117.774902,18.2037994 119.207153,16.1461645 C120.07412,14.8996264 119.65116,14.3466059 118.446426,14.9972769 C117.635586,15.4347111 115.270218,16.9303576 114.442339,16.5556986 C114.074504,16.3892943 113.788856,16.004671 113.761794,15.2792675 C119.939816,14.0576402 122.110743,7.11050693 117.604515,6.67008339 C116.679416,6.57940796 115.374454,6.84645209 114.150677,7.60473787 C112.927902,8.36202722 111.784306,9.60956177 110.965448,10.8252105 C110.145587,12.042852 109.532195,13.6829813 109.365817,14.3396309 C109.198437,14.9962804 109.269599,14.7431864 109.232515,14.9414766 C109.214474,11.7957365 107.412384,11.4051347 107.910514,7.67947037 C108.058851,6.57641866 103.085564,6.02240172 103.365199,8.36601295 C103.536588,9.80785201 101.186253,13.8444035 99.7319528,15.5801904 C99.5284911,15.8223237 98.8028442,16.8805359 98.6074006,16.1959862 C98.2666272,15.0062448 99.8191507,10.4864231 100.686118,8.07704728 C100.772314,7.83491398 100.738237,7.58979137 100.590902,7.3815368 C100.442566,7.1722858 100.222065,7.0586924 99.9644806,7.0586924 L99.1245744,7.0586924 C98.816876,7.0586924 98.5532778,7.22708963 98.4259889,7.50609097 C98.2836659,7.82395321 98.116286,8.19163712 98.116286,8.19163712 C98.0852155,8.12089035 98.1754202,8.28530185 98.0180631,7.99035758 C97.860706,7.69441687 97.3325072,7.1095105 96.7712334,6.92815963 C96.2109618,6.74680876 95.4953376,6.73784086 94.7396225,6.88431656 C93.9829051,7.03079226 92.7430913,7.65356311 92.2088789,8.03918281 C91.6736642,8.42579895 92.0264649,8.17370131 91.9322511,8.24444808 C90.7555806,8.93099066 88.6347673,9.72813734 87.2997374,9.96628491 C87.1944985,8.68985379 86.2754126,7.54096614 84.9594259,7.53399111 C91.5493821,2.29474456 88.6237422,-2.84286578 84.2909087,1.83339592 C81.4344258,4.91835357 78.0196758,11.0882689 77.3942564,15.4147825 C77.1887901,15.6569158 76.9843261,15.8811133 76.7788597,16.0744213 C73.6527649,19.0388105 76.9161714,11.9621409 77.2880153,11.2098337 C78.4396289,8.88814403 76.0121196,7.89270711 74.3303026,7.07563177 C77.82323,-3.21951759 66.5336077,1.63510568 72.4801035,7.27292557 C72.1303097,8.11092601 71.4227037,9.90948821 70.7902684,11.0125399 C70.157833,12.1165881 69.2958768,13.3720941 68.4669956,14.2947914 C67.640119,15.2164922 66.7861809,15.9070205 66.1196682,16.2866616 C65.4521533,16.6663027 64.973066,16.7320673 64.5861879,16.5556986 C64.1983076,16.3813228 63.9036389,15.9658101 63.9026366,15.1686634 L63.9026366,15.1527205 C64.3897421,15.1158525 64.8868703,15.0590558 65.4351146,14.9115836 C66.1266842,14.726247 66.8964311,14.397424 67.5509165,13.9978542 C68.2054019,13.5992809 68.7436234,13.1289644 69.1886334,12.4324574 C69.6346456,11.7339577 69.9854418,10.8082711 70.066626,9.97325994 C70.146808,9.13924523 69.9573781,8.39889525 69.588541,7.80402454 C69.2197039,7.20915383 68.6734642,6.75976239 67.7483646,6.67008339 C66.8222628,6.57940796 65.5173011,6.84645209 64.294526,7.60473787 C63.0697463,8.36202722 61.9271531,9.60956177 61.1062901,10.8252105 C60.2874317,12.042852 59.7903034,13.2276113 59.507662,14.3396309 C59.4044277,14.749165 59.3302594,15.1497312 59.285157,15.5343545 C59.2801456,15.5712225 59.2761365,15.609087 59.2731297,15.6449586 C59.0385974,15.8591917 58.7980515,16.0544927 58.5755465,16.2089398 C58.1525866,16.4989019 57.7957768,16.6364097 57.6694902,16.1959862 C57.5442058,15.7555627 57.6494447,14.7372078 58.270855,12.6945194 C58.5494874,11.7787972 58.931354,10.6588061 59.3703503,9.42422517 C59.5617848,9.26778513 59.7612375,9.1023772 59.9646992,8.92600849 C60.8587283,8.15476908 61.8419598,7.1932109 62.6337568,6.25556712 C63.4265561,5.31891977 64.0269186,4.40618683 64.3727034,3.57117568 C64.7174859,2.73417167 64.8076906,1.97588589 64.6252766,1.36905798 C64.4428626,0.763226504 63.9868277,0.310845764 63.3283332,0.263016964 C62.670841,0.213195296 61.809887,0.569918435 60.9118488,1.48564068 C60.0128084,2.4033558 59.0786884,3.88206288 58.3801029,5.29500537 C57.8909929,6.28446369 57.5171444,7.24303257 57.1783756,8.19163712 C57.147305,8.12089035 57.1152323,8.05512575 57.0801526,7.99035758 C56.800518,7.4652372 56.3945967,7.1095105 55.8333229,6.92815963 C55.2730513,6.74680876 54.5574272,6.73784086 53.8017121,6.88431656 C53.0449947,7.03079226 52.2491885,7.33171514 51.2699662,8.03918281 C50.2907438,8.74565406 49.1301097,9.85867011 48.2280624,11.1580192 C47.3270175,12.4573683 46.6845594,13.9430504 46.3798679,15.2164922 C46.3357678,15.3968467 46.2996859,15.5732154 46.2706199,15.7446019 C45.6111232,16.3853085 44.964656,16.9184004 44.6369121,16.9223861 C43.6566875,16.9333469 44.7621965,14.5717998 44.8914899,14.2718734 C45.5289366,12.7911735 48.5157153,7.85882838 46.1272946,6.94908473 C43.8771879,6.09314848 41.7002472,9.19404906 40.6368338,10.5402305 C40.3992947,10.8421498 38.9219418,12.6875444 39.367954,11.4260598 C39.7748775,10.2741828 41.8836635,6.77072316 39.025176,6.71293003 C37.4516048,6.68104416 34.8236405,8.13484041 33.3773581,8.54537095 C32.9614141,7.59676641 31.9972258,6.9271632 30.089897,6.9271632 C28.3118617,6.9271632 26.4295898,7.93356088 25.3050376,9.2877138" id="Fill-1"></path>
                        <path d="M14.2231144,4.9024341 L14.0556975,4.95155449 C14.1105066,4.93351027 14.1663123,4.91747096 14.2231144,4.9024341 M9.88023996,18.9478583 C10.5678451,20.2600744 11.6042356,20.9447525 13.1837344,20.9708164 C14.2460346,21.0891063 15.3681265,20.8425019 16.4513538,20.327239 C18.2132176,19.5733914 19.626296,18.2190721 20.6766379,16.5860697 C21.2705693,15.7129298 21.7518929,14.7595932 22.0677927,13.7711707 C22.1235983,13.5957407 22.179404,13.4102862 22.2342131,13.2158095 C22.3926612,12.7105712 22.5242031,12.1983157 22.6278421,11.6880651 L22.8939154,11.7462076 C23.593479,11.8905614 24.3887093,11.9777752 25.1610195,12.0088514 C25.9323331,12.0389251 26.6797301,12.0138636 27.2029079,11.9066007 C27.7260858,11.7993379 28.024048,11.610876 28.193458,11.3632691 C28.3618714,11.1136573 28.4047222,10.8028957 28.1725309,10.6334804 C27.9413361,10.4650677 27.4350992,10.4339915 26.8650845,10.4049203 C26.2940733,10.3748465 25.6572911,10.3437704 25.0484117,10.2866303 C24.4405288,10.2284878 23.8575592,10.1462864 23.2307423,9.956822 L22.8789675,9.84254191 L22.8839502,9.76836009 C22.9238113,9.3142471 22.9527107,9.46662056 22.9317836,8.45313659 L22.9268009,8.3178049 C22.8889328,6.94243398 22.5909706,5.66329892 21.8445701,4.8001835 C21.1878574,4.04032114 20.2830088,3.80875358 19.5136882,3.88093048 C19.4419381,3.88794768 19.3711845,3.89797225 19.3014275,3.91000173 L19.2934553,3.91100419 L19.266549,3.91601648 L19.2595733,3.91802139 L19.2316705,3.92203122 L19.2246947,3.92403613 L19.1977885,3.93005087 L19.1898162,3.93105333 L19.1639065,3.93807053 L19.1569308,3.93907298 C18.5470549,4.08041941 18.0527763,4.43328426 17.7578037,4.96759381 C17.4080219,5.60214905 17.3402579,6.49533818 17.6003521,7.37248801 C17.8026475,8.05917101 18.279985,8.81502354 18.7324093,9.37840434 L18.739385,9.386424 L18.7593156,9.41148542 L18.7662913,9.41950508 L18.7862219,9.4445665 L18.7931976,9.45358861 L18.8131282,9.47664512 L18.8211004,9.48566724 L18.8400345,9.5097262 L18.8480067,9.51774586 L18.8669407,9.54080237 L18.8739164,9.54982448 L18.893847,9.57187853 L18.9008227,9.58090065 L18.9197568,9.60195224 L18.927729,9.61097435 L18.9466631,9.63202595 C19.0014722,9.69518074 19.0552848,9.7543257 19.1071043,9.80946083 C19.6362613,10.3608121 19.9521611,10.5913772 20.4354778,10.8881045 C20.4494292,13.5736866 18.9476596,16.6121336 15.9869712,16.5710329 L15.7796931,16.5660206 C14.8818203,16.3545022 14.2819097,15.6136865 14.5190836,14.4287824 C16.6008332,11.5046155 18.161398,6.60560845 16.1653499,5.19615399 L16.1633569,5.19515153 C16.1274818,5.16908765 16.0896137,5.14502868 16.0497526,5.12096972 L16.0377942,5.11395252 C16.0029157,5.09290092 15.9670406,5.07285178 15.9291725,5.05480756 L15.9052558,5.04277808 C15.8703773,5.02473385 15.8335057,5.00869454 15.7966341,4.99365769 L15.7717209,4.98363312 C15.7288701,4.96558889 15.6840263,4.94954958 15.6391825,4.93451273 L15.6332033,4.93250781 C15.5833769,4.9164685 15.5325539,4.90143165 15.4807344,4.88839971 L15.4827274,4.88940216 L15.4797378,4.88839971 L15.4887066,4.89341199 L15.4827274,4.89140708 L15.4817309,4.89040462 L15.4747552,4.88839971 L15.4737586,4.88839971 L15.4588107,4.88338742 L15.4578142,4.88338742 L15.4508385,4.88138251 L15.4488454,4.88138251 L15.4428662,4.8793776 L15.4418697,4.8793776 L15.434894,4.87737268 L15.4329009,4.87737268 L15.4269218,4.87536777 L15.4259252,4.87536777 L15.417953,4.87336285 L15.4169565,4.8723604 L15.4099808,4.87035548 L15.4089842,4.87035548 L15.4020085,4.86835057 L15.401012,4.86835057 L15.3940363,4.86634565 L15.3920432,4.86634565 L15.3850675,4.86434074 L15.384071,4.86434074 L15.3770953,4.86233583 L15.3760988,4.86233583 L15.3681265,4.86033091 L15.36713,4.86033091 L15.3601543,4.85932846 L15.3591578,4.858326 L15.3521821,4.85732354 L15.350189,4.85732354 L15.3432133,4.85531863 L15.3422168,4.85531863 L15.3342446,4.85331371 L15.3262723,4.8513088 L15.3252758,4.8513088 L15.3173036,4.84930389 L15.3083348,4.84830143 L15.3003626,4.84629652 L15.299366,4.84629652 L15.2913938,4.8442916 L15.2903973,4.8442916 L15.282425,4.84328915 L15.2814285,4.84328915 L15.2744528,4.84128423 L15.2734563,4.84128423 L15.265484,4.84028177 L15.2644875,4.84028177 L15.2565153,4.83827686 L15.2555187,4.83827686 L15.2475465,4.8372744 L15.24655,4.8372744 L15.2385777,4.83627195 L15.229609,4.83426703 L15.2286124,4.83426703 L15.2206402,4.83326458 L15.2196437,4.83326458 L15.2116715,4.83125966 L15.2027027,4.83025721 L15.2017062,4.83025721 L15.1937339,4.82925475 L15.1927374,4.82925475 L15.1847652,4.82825229 L15.1837686,4.82825229 L15.1757964,4.82724983 L15.1747999,4.82724983 L15.1658311,4.82624738 L15.1568623,4.82524492 L15.1478936,4.82424246 L15.1468971,4.82424246 L15.1379283,4.82324001 L15.1289595,4.82223755 L15.127963,4.82223755 L15.1189942,4.82123509 L15.1100255,4.82023264 L15.1000602,4.81923018 L15.0910914,4.81923018 L15.0811261,4.81822772 L15.0721574,4.81822772 L15.0621921,4.81722526 L15.0532233,4.81622281 L15.0522268,4.81622281 L15.043258,4.81622281 L15.0422615,4.81622281 L15.0332927,4.81522035 L15.0322962,4.81522035 L15.0233274,4.81522035 L15.0133621,4.81421789 L15.0033968,4.81421789 L14.9934315,4.81321544 L14.9834663,4.81321544 L14.973501,4.81321544 L14.9635357,4.81321544 L14.9535704,4.81221298 L14.9436051,4.81221298 L14.9336398,4.81221298 L14.9236745,4.81221298 L14.9127127,4.81221298 C14.8539175,4.81221298 14.7961188,4.81421789 14.7383201,4.81822772 L14.7373235,4.81822772 C14.6795248,4.82223755 14.6217261,4.82825229 14.5639274,4.83526949 C14.5061287,4.84228669 14.4493266,4.85231126 14.3925244,4.86333828 L14.3915279,4.86333828 C14.3347257,4.87436531 14.2789201,4.88739725 14.2231144,4.9024341 C14.1663123,4.91747096 14.1105066,4.93451273 14.0556975,4.95155449 L14.0537045,4.95255695 C10.7771163,6.02819325 8.69337362,13.0123108 9.19861395,16.2031312 C8.75216885,16.4948462 8.28778622,16.6412049 7.7556396,16.580055 C4.29270045,16.1800747 6.87570427,11.1076426 8.48111289,7.99300885 C8.81594672,7.34341675 10.6724807,4.67186901 9.31919399,4.43428671 C9.20758272,4.41423757 9.09497491,4.40321055 8.98137058,4.39920072 L8.97937752,4.39920072 C8.94549552,4.39819826 8.91161353,4.39719581 8.87773153,4.39719581 C6.63952684,4.39719581 4.02463408,7.21810964 2.96034084,8.86314148 C1.31706411,11.4023649 -0.0541601423,14.5570969 0.0016454958,17.0151213 C0.0454927828,19.0300598 1.5960923,20.9026493 4.26479763,20.9728213 C6.05855028,21.0209393 8.25888687,20.002443 9.80948638,18.8526249 C9.83240656,18.8847035 9.85632326,18.9157797 9.88023996,18.9478583" id="Fill-3"></path>
                    </g>
                </g>
            </g>
        </g>
    </g>
</svg>