<?xml version="1.0" encoding="utf-8"?>
<!-- Generator: Adobe Illustrator 17.0.0, SVG Export Plug-In . SVG Version: 6.00 Build 0)  -->
<!DOCTYPE svg PUBLIC "-//W3C//DTD SVG 1.1//EN" "http://www.w3.org/Graphics/SVG/1.1/DTD/svg11.dtd">
<svg version="1.1" id="Слой_1" xmlns="http://www.w3.org/2000/svg" xmlns:xlink="http://www.w3.org/1999/xlink" x="0px" y="0px"
	 width="29px" height="31px" viewBox="0 0 29 31" enable-background="new 0 0 29 31" xml:space="preserve">
<path id="Shape-Copy-33" fill="#010101" fill-opacity="0.2" d="M14.232,17.659c-0.189,0.282-0.35,0.556-0.497,0.828
	c-2.911,5.202-1.278,11.197-1.278,11.197c0.026,0.112,0.077,0.181,0.137,0.23l0.152,0.062l0.228-0.059
	c0.133-0.052,0.279-0.125,0.452-0.233c0,0,9.59-6.006,13.636-11.209c0.213-0.268,0.418-0.54,0.604-0.817
	C30.126,13.982,29.117,11,25.408,11S16.695,13.982,14.232,17.659z M16.627,17.659c1.582-2.362,4.808-4.283,7.189-4.283
	s3.031,1.922,1.449,4.283c-1.582,2.362-4.806,4.284-7.188,4.284S15.046,20.021,16.627,17.659z"/>
<linearGradient id="Shape-Copy-34_1_" gradientUnits="userSpaceOnUse" x1="-404.3771" y1="307.3901" x2="-403.3983" y2="306.3901" gradientTransform="matrix(21.9254 0 0 -30.9765 8867.6914 9520.3311)">
	<stop  offset="0" style="stop-color:#F04A39"/>
	<stop  offset="1" style="stop-color:#F0513A"/>
</linearGradient>
<path id="Shape-Copy-34" fill="url(#Shape-Copy-34_1_)" d="M10.963,0C4.908,0,0,4.867,0,10.87c0,0.46,0.037,0.907,0.094,1.352
	c0.937,8.491,10.157,18.278,10.157,18.278c0.164,0.182,0.323,0.295,0.475,0.376l0.008,0.004l0.307,0.097l0.307-0.097l0.008-0.004
	c0.152-0.081,0.311-0.2,0.475-0.376c0,0,9.087-9.804,10.002-18.297c0.055-0.438,0.092-0.882,0.092-1.334
	C21.923,4.867,17.017,0,10.963,0L10.963,0z M10.963,17.863c-3.888,0-7.052-3.137-7.052-6.992s3.164-6.992,7.052-6.992
	c3.888,0,7.05,3.137,7.05,6.992S14.85,17.863,10.963,17.863L10.963,17.863z"/>
</svg>
